<svg width="570" height="362" viewBox="0 0 570 362" fill="none" xmlns="http://www.w3.org/2000/svg">
<path d="M531.997 281.136H356.245C356.245 281.136 271.33 279.168 266.516 292.632H30.0125C-14.6835 206.153 80.6517 165.541 80.5288 141.052C80.5288 140.884 80.5288 140.717 80.5288 140.55C80.5288 80.7116 134.622 32.2059 201.34 32.2059C208.209 32.2031 215.067 32.7231 221.857 33.7614C242.515 36.9358 263.521 31.7932 280.403 19.0023C296.224 7.01554 315.395 0 336.053 0C374.717 0 408.175 24.5787 424.246 60.3295C434.992 84.2437 456.028 101.337 480.938 106.27C523.102 114.615 557.387 143.581 567.896 185.261C576.278 218.515 558.643 264.9 531.997 281.136Z" fill="white"/>
<path opacity="0.6" d="M227.253 20.9514C225.257 17.0532 229.548 13.4999 233.315 11.5783C237.387 9.50221 255.304 8.98371 257.323 14.3888C259.043 18.9875 255.28 24.6359 248.924 27.0083C242.843 29.2748 233.607 27.3172 228.867 22.9873C228.212 22.4103 227.665 21.7208 227.253 20.9514Z" fill="white"/>
<path opacity="0.6" d="M1.2373 150.16C-3.13801 141.24 4.94307 133.786 12.1745 129.916C19.9929 125.734 55.3322 126.555 59.9215 138.842C63.8265 149.295 57.023 161.487 44.7234 166.068C32.962 170.453 14.4988 165.072 4.65279 154.867C3.27589 153.485 2.1235 151.897 1.2373 150.16Z" fill="white"/>
<path opacity="0.6" d="M299.486 330.746C291.677 314.806 306.023 301.529 318.869 294.64C332.745 287.199 395.589 288.782 403.788 310.724C410.765 329.394 398.703 351.133 376.852 359.281C355.957 367.073 323.109 357.391 305.576 339.157C302.815 336.291 300.826 333.481 299.486 330.746Z" fill="white"/>
<path d="M185.469 51.2146L178.901 39.8902C182.207 34.7098 183.443 28.4774 182.364 22.4293C181.284 16.3811 177.968 10.9592 173.073 7.23907C168.178 3.51894 162.063 1.77241 155.939 2.34596C149.815 2.91951 144.131 5.77122 140.013 10.3354C135.896 14.8996 133.647 20.8427 133.712 26.9859C133.777 33.129 136.152 39.0233 140.365 43.4994C144.578 47.9755 150.321 50.7065 156.456 51.1505C162.59 51.5944 168.668 49.719 173.483 45.8963L185.469 51.2146Z" fill="white"/>
<path d="M186.493 52.1309L173.551 46.3873C169.188 49.8068 163.797 51.6566 158.251 51.6378C152.727 51.6402 147.358 49.8098 142.988 46.434C138.618 43.0582 135.494 38.3283 134.107 32.9869C132.72 27.6456 133.149 21.9955 135.325 16.9238C137.502 11.8521 141.303 7.64618 146.133 4.96644C150.962 2.28669 156.546 1.28495 162.007 2.11852C167.468 2.95208 172.497 5.57375 176.305 9.57181C180.112 13.5699 182.483 18.7179 183.044 24.2074C183.604 29.6969 182.324 35.217 179.403 39.9008L186.493 52.1309ZM158.251 2.70042C151.866 2.70042 145.743 5.23377 141.228 9.74317C136.714 14.2526 134.177 20.3686 134.177 26.7459C134.177 33.1231 136.714 39.2392 141.228 43.7485C145.743 48.2579 151.866 50.7913 158.251 50.7913C163.695 50.8098 168.98 48.965 173.227 45.564L173.428 45.4053L184.446 50.2982L178.407 39.8796L178.547 39.668C180.867 36.0338 182.166 31.8434 182.308 27.5357C182.451 23.2279 181.431 18.9612 179.355 15.1823C177.28 11.4034 174.225 8.25133 170.512 6.05614C166.798 3.86095 162.562 2.70338 158.247 2.70465L158.251 2.70042Z" fill="#1A1B1C"/>
<path d="M145.502 30.7563C147.258 30.7563 148.681 29.335 148.681 27.5818C148.681 25.8286 147.258 24.4073 145.502 24.4073C143.747 24.4073 142.324 25.8286 142.324 27.5818C142.324 29.335 143.747 30.7563 145.502 30.7563Z" fill="#5551CE"/>
<path d="M158.213 30.7563C159.969 30.7563 161.392 29.335 161.392 27.5818C161.392 25.8286 159.969 24.4073 158.213 24.4073C156.458 24.4073 155.035 25.8286 155.035 27.5818C155.035 29.335 156.458 30.7563 158.213 30.7563Z" fill="#5551CE"/>
<path d="M170.928 30.7563C172.683 30.7563 174.106 29.335 174.106 27.5818C174.106 25.8286 172.683 24.4073 170.928 24.4073C169.173 24.4073 167.75 25.8286 167.75 27.5818C167.75 29.335 169.173 30.7563 170.928 30.7563Z" fill="#5551CE"/>
<path d="M320.651 76.5826H123.312V193.896H320.651V76.5826Z" fill="white"/>
<path d="M320.651 76.1721H123.312V101.185H320.651V76.1721Z" fill="#DDDFE3"/>
<path d="M321.06 194.304H122.902V76.1721H321.06V194.304ZM123.722 193.487H320.243V76.9911H123.722V193.487Z" fill="#1A1B1C"/>
<path d="M138.83 94.8612C137.606 94.8612 136.409 94.4988 135.392 93.8198C134.374 93.1408 133.581 92.1758 133.112 91.0466C132.644 89.9174 132.521 88.6748 132.759 87.4758C132.997 86.2768 133.586 85.1753 134.451 84.3106C135.316 83.4458 136.418 82.8565 137.618 82.6173C138.818 82.3781 140.063 82.4996 141.194 82.9665C142.325 83.4334 143.292 84.2247 143.972 85.2405C144.653 86.2562 145.017 87.4508 145.019 88.6731C145.019 90.3132 144.367 91.8862 143.206 93.0465C142.046 94.2068 140.472 94.8595 138.83 94.8612ZM138.83 83.3443C137.773 83.3443 136.74 83.6573 135.861 84.2438C134.983 84.8304 134.298 85.664 133.894 86.6392C133.49 87.6145 133.385 88.6875 133.591 89.7227C133.798 90.7578 134.307 91.7084 135.055 92.4543C135.803 93.2001 136.755 93.7078 137.791 93.9129C138.828 94.1181 139.902 94.0115 140.878 93.6067C141.854 93.2019 142.688 92.5171 143.274 91.6389C143.86 90.7607 144.172 89.7286 144.171 88.6731C144.168 87.2596 143.604 85.9048 142.603 84.9059C141.602 83.907 140.245 83.3454 138.83 83.3443Z" fill="#1A1B1C"/>
<path d="M345.981 82.8639C357.786 71.0726 357.786 51.9553 345.981 40.1641C334.175 28.3729 315.036 28.3729 303.23 40.1641C291.425 51.9553 291.425 71.0726 303.23 82.8639C315.036 94.6551 334.175 94.6551 345.981 82.8639Z" fill="white"/>
<path d="M324.606 92.129C307.704 92.129 293.953 78.3963 293.953 61.5146C293.953 44.6328 307.704 30.898 324.606 30.898C341.507 30.898 355.256 44.6328 355.256 61.5146C355.256 78.3963 341.507 92.129 324.606 92.129ZM324.606 31.7445C308.17 31.7445 294.801 45.0984 294.801 61.5146C294.801 77.9307 308.17 91.2825 324.606 91.2825C341.041 91.2825 354.409 77.9286 354.409 61.5146C354.409 45.1005 341.039 31.7445 324.606 31.7445Z" fill="#1A1B1C"/>
<path d="M324.418 62.1156L312.008 48.9649L312.624 48.385L324.615 61.0913L336.046 55.8048L336.401 56.5709L324.418 62.1156Z" fill="#1A1B1C"/>
<path d="M325.734 82.9591H324.039V87.615H325.734V82.9591Z" fill="#1A1B1C"/>
<path d="M325.734 36.5422H324.039V41.1981H325.734V36.5422Z" fill="#1A1B1C"/>
<path d="M350.103 60.6681H345.441V62.3611H350.103V60.6681Z" fill="#1A1B1C"/>
<path d="M303.771 60.6681H299.109V62.3611H303.771V60.6681Z" fill="#1A1B1C"/>
<path d="M256.237 96.1352L236.888 94.5861L217.107 93.4602L204.606 92.2327L204.538 84.7495C204.538 84.7495 202.081 88.8213 200.326 91.8095L194.088 91.2C189.139 84.4278 191.402 79.7719 196.487 77.0885C201.699 74.3373 193.521 64.3906 201.572 60.158C201.572 60.158 208.115 57.7539 209.903 54.0969C212.869 48.0274 218.243 35.1857 234.057 42.6689C234.521 42.8805 236.238 42.362 236.772 42.3345C238.917 42.214 241.067 42.4617 243.128 43.0668C245.83 43.8683 248.247 45.4251 250.092 47.5533C253.338 51.3267 253.101 56.7085 256.561 60.3337C258.205 62.0564 260.083 63.9314 261.191 66.0583C262.809 69.1629 261.191 72.4326 260.657 75.5817C259.96 79.6555 262.513 82.7284 262.865 86.6647C263.282 91.3227 260.432 94.4929 256.237 96.1352Z" fill="#1A1B1C"/>
<path d="M211.844 106.861C214.496 99.4535 215.929 89.7016 214.92 77.2324L238.337 85.4859L238.49 86.4764C239.219 91.0985 240.353 95.6478 241.88 100.072C242.973 103.161 244.261 106.023 245.736 108.342L211.844 106.861Z" fill="#F9B384"/>
<path d="M246.706 73.6008C247.307 76.3181 247.53 79.1244 246.706 81.5412C243.89 89.7948 239.156 93.1173 231.601 90.8529C228.315 89.8731 224.018 87.9345 221.526 85.5812C218.39 82.6184 215.458 78.3096 212.602 73.4167L214.864 55.0726L235.629 49.2908L248.765 54.0906L249.469 61.1421L245.511 69.8867C246.023 71.085 246.423 72.3284 246.706 73.6008Z" fill="#F9B384"/>
<path d="M249.141 66.6509C247.657 59.5612 236.784 54.1901 230.071 55.7519C226.258 66.7567 218.1 71.3067 210.473 67.6371L210.615 61.1485L213.863 52.1182L226.01 47.3205L239.57 46.3344L248.045 50.9902L251.577 57.4788L249.141 66.6509Z" fill="#1A1B1C"/>
<path d="M238.28 70.8623C238.317 71.6701 238.49 72.4659 238.793 73.2156C239.113 73.9986 239.59 74.6272 240.086 75.3065C240.48 75.8462 240.959 76.608 240.486 77.2429C240.107 77.753 239.382 77.9604 238.791 78.1022C238.261 78.2312 238.486 79.0481 239.016 78.919C240.342 78.5952 241.846 77.753 241.461 76.1552C241.249 75.2494 240.531 74.5976 240.05 73.8272C239.492 72.9349 239.173 71.9149 239.122 70.8644C239.094 70.3226 238.247 70.3205 238.274 70.8644L238.28 70.8623Z" fill="#1A1B1C"/>
<path d="M233.127 72.7352C233.888 72.7352 234.504 71.8114 234.504 70.6718C234.504 69.5322 233.888 68.6084 233.127 68.6084C232.367 68.6084 231.75 69.5322 231.75 70.6718C231.75 71.8114 232.367 72.7352 233.127 72.7352Z" fill="#1A1B1C"/>
<path d="M244.174 71.0761C244.078 72.1342 243.432 72.9321 242.729 72.8686C242.025 72.8051 241.534 71.8993 241.629 70.8475C241.724 69.7957 242.371 68.9936 243.074 69.0571C243.777 69.1206 244.269 70.0243 244.174 71.0761Z" fill="#1A1B1C"/>
<path d="M239.054 82.8808C238.608 82.8784 238.164 82.8273 237.729 82.7284C236.003 82.3411 234.551 81.3295 233.88 80.0195C233.85 79.9701 233.831 79.9152 233.824 79.8582C233.816 79.8012 233.821 79.7432 233.836 79.6879C233.852 79.6326 233.879 79.5811 233.915 79.5365C233.952 79.4919 233.997 79.4552 234.048 79.4286C234.099 79.4019 234.155 79.386 234.212 79.3816C234.27 79.3773 234.327 79.3847 234.382 79.4034C234.436 79.422 234.486 79.4516 234.529 79.4902C234.571 79.5288 234.606 79.5757 234.63 79.628C235.2 80.72 236.428 81.5687 237.914 81.9009C239.041 82.1528 240.098 82.0406 240.668 81.6025C240.758 81.5346 240.871 81.505 240.982 81.5203C241.094 81.5356 241.194 81.5945 241.262 81.684C241.33 81.7735 241.36 81.8864 241.345 81.9977C241.329 82.109 241.271 82.2097 241.181 82.2776C240.555 82.7005 239.809 82.9119 239.054 82.8808Z" fill="#1A1B1C"/>
<path d="M235.209 65.6498C235.328 66.1471 233.726 66.4963 231.819 66.708C229.912 66.9196 228.357 67.1481 228.276 66.4307C228.196 65.7133 229.76 65.5842 231.666 65.3726C233.573 65.1609 235.027 64.8922 235.209 65.6498Z" fill="#1A1B1C"/>
<path d="M239.271 65.3938C239.171 65.8975 240.597 66.2636 242.305 66.5048C244.012 66.7461 245.394 66.9979 245.455 66.2742C245.517 65.5504 244.127 65.4044 242.419 65.161C240.711 64.9176 239.421 64.6298 239.271 65.3938Z" fill="#1A1B1C"/>
<path d="M207.944 69.3703C207.702 70.0209 207.591 70.7131 207.617 71.4068C207.644 72.1005 207.807 72.7822 208.099 73.4124C209.423 76.2716 213.046 77.7382 216.07 77.2641C219.093 76.7901 218.057 75.5076 218.773 72.7458C219.489 69.984 218.138 67.6349 215.44 66.1853C212.311 64.507 208.989 66.4985 207.944 69.3703Z" fill="#F9B384"/>
<path d="M215.779 73.9902C215.679 72.6593 215.074 71.4169 214.087 70.5166C213.101 69.6163 211.808 69.126 210.472 69.146C209.927 69.146 209.925 69.9925 210.472 69.9925C211.585 69.9674 212.666 70.3668 213.495 71.1094C214.324 71.852 214.838 72.8821 214.934 73.9902C214.978 74.5298 215.828 74.5341 215.781 73.9902H215.779Z" fill="#1A1B1C"/>
<path d="M180.811 194.196L182.786 175.285L181.938 172.212L181.235 169.647L156.75 158.007L166.174 129.344C167.553 125.14 169.923 121.329 173.085 118.232C176.248 115.135 180.11 112.843 184.345 111.55L206.66 104.744L210.398 99.7667C210.99 98.9759 211.737 98.3135 212.593 97.8197C214.178 96.897 216.102 96.7277 217.89 97.151C224.67 98.7509 231.332 99.9022 237.222 98.2092C240.112 97.3796 243.315 98.2345 245.027 100.706C245.146 100.876 245.256 101.062 245.366 101.24L248.934 107.495L256.376 110.924C261.16 112.012 265.502 114.522 268.83 118.122C272.158 121.723 274.317 126.247 275.021 131.097L284.208 194.196H180.811Z" fill="#5551CE"/>
<path d="M233.232 143.824C233.802 144.67 234.881 146.609 234.059 147.999C233.911 148.248 233.714 148.464 233.48 148.634C233.48 148.634 232.895 151.385 230.561 152.782C220.996 158.46 210.843 155.199 210.843 155.199L206.605 142.29L213.292 133.488L220.327 123.804C220.327 123.804 222.782 123.582 223.049 126.439C223.316 129.296 218.2 136.533 218.2 136.533C220.441 135.443 225.495 133.549 228.863 133.824C230.239 133.937 230.853 134.997 231.26 137.261C231.287 137.437 231.325 137.621 231.355 137.814C231.507 137.888 231.655 137.972 231.798 138.063C232.713 138.637 234.61 140.161 233.546 142.404C233.373 142.756 233.159 143.088 232.91 143.392C232.91 143.392 233.042 143.547 233.232 143.824Z" fill="#F9B384"/>
<path d="M212.72 161.453L204.821 162.299C204.821 162.299 184.769 183.462 171.488 182.895C168.498 182.786 165.564 182.051 162.877 180.737C156.097 177.427 152.978 169.495 155.326 162.342L156.75 158.007C168.225 149.932 183.268 144.218 198.041 140.569L204.262 136.43C204.526 136.253 204.827 136.14 205.142 136.098C205.457 136.057 205.778 136.089 206.079 136.191C206.379 136.293 206.653 136.463 206.877 136.688C207.101 136.913 207.271 137.187 207.372 137.488L214.466 158.727C214.566 159.021 214.599 159.334 214.561 159.643C214.524 159.952 214.417 160.248 214.25 160.51C214.082 160.772 213.857 160.992 213.592 161.156C213.328 161.319 213.029 161.42 212.72 161.453Z" fill="#5551CE"/>
<path d="M272.336 218.345H66.6562V348.834H272.336V218.345Z" fill="white"/>
<path d="M272.336 218.345H66.6562V240.956H272.336V218.345Z" fill="#DDDFE3"/>
<path d="M272.764 349.258H66.2305V217.922H272.764V349.258ZM67.0843 348.411H271.917V218.769H67.078L67.0843 348.411Z" fill="#1A1B1C"/>
<path d="M255.39 235.299C254.216 235.299 253.069 234.952 252.094 234.3C251.118 233.649 250.358 232.724 249.909 231.641C249.46 230.558 249.342 229.367 249.571 228.217C249.8 227.068 250.365 226.012 251.195 225.183C252.024 224.355 253.081 223.79 254.232 223.562C255.383 223.333 256.576 223.45 257.66 223.899C258.744 224.347 259.671 225.107 260.322 226.081C260.974 227.056 261.322 228.201 261.322 229.373C261.319 230.944 260.694 232.45 259.582 233.56C258.47 234.671 256.962 235.296 255.39 235.299ZM255.39 224.294C254.384 224.294 253.401 224.592 252.565 225.15C251.728 225.708 251.077 226.502 250.692 227.43C250.307 228.358 250.206 229.379 250.402 230.364C250.598 231.35 251.083 232.255 251.794 232.965C252.505 233.675 253.411 234.159 254.398 234.355C255.384 234.551 256.406 234.45 257.336 234.066C258.265 233.681 259.059 233.03 259.618 232.195C260.177 231.36 260.475 230.378 260.475 229.373C260.474 228.026 259.939 226.733 258.985 225.779C258.032 224.825 256.739 224.287 255.39 224.284V224.294Z" fill="#1A1B1C"/>
<path d="M163.012 286.689H72.3281V349.05H163.012V286.689Z" fill="#5551CE"/>
<path d="M110.949 249.245L149.588 250.092C147.686 247.282 146.065 244.292 144.748 241.165C142.905 236.825 141.288 231.576 140.038 224.959L127.236 220.967L112.987 216.519C114.492 227.977 112.685 245.205 110.949 249.245Z" fill="#F9B384"/>
<path d="M148.409 217.429C147.773 223.99 142.832 230.618 135.06 230.482C131.738 230.415 127.577 229.467 124.873 227.435L113.576 218.902L109.508 200.566L126.907 184.525L143.239 192.728L144.087 205.849C144.12 206.39 145.231 207.482 146.324 209.158C147.333 210.674 148.316 212.672 148.46 215.16C148.502 215.917 148.485 216.675 148.409 217.429Z" fill="#F9B384"/>
<path d="M135.693 206.187C135.858 207.245 136.316 208.236 137.013 209.048C137.753 209.933 138.694 210.623 139.444 211.501C140.079 212.238 140.844 213.332 140.145 214.265C139.56 215.044 138.475 215.387 137.579 215.626C137.052 215.768 137.276 216.585 137.804 216.443C139.721 215.931 142.073 214.61 140.982 212.284C140.401 211.04 139.287 210.117 138.31 209.19C137.333 208.263 136.696 207.269 136.503 205.963C136.422 205.425 135.607 205.654 135.685 206.187H135.693Z" fill="#1A1B1C"/>
<path d="M138.291 218.987C137.334 219.097 136.365 218.984 135.46 218.656C134.554 218.329 133.738 217.796 133.074 217.099C132.697 216.703 132.099 217.31 132.475 217.698C133.216 218.475 134.125 219.071 135.134 219.442C136.142 219.812 137.222 219.946 138.291 219.833C138.829 219.776 138.835 218.929 138.291 218.987Z" fill="#1A1B1C"/>
<path d="M129.332 207.089C129.491 208.064 130.194 208.767 130.904 208.659C131.614 208.551 132.065 207.671 131.906 206.695C131.748 205.719 131.046 205.017 130.334 205.125C129.622 205.233 129.175 206.113 129.332 207.089Z" fill="#1A1B1C"/>
<path d="M138.835 206.613C139.079 207.54 139.825 208.155 140.498 207.986C141.172 207.817 141.524 206.928 141.28 206.003C141.037 205.078 140.291 204.462 139.617 204.632C138.943 204.801 138.591 205.688 138.835 206.613Z" fill="#1A1B1C"/>
<path d="M137.125 202.005C137.098 202.355 138.236 202.723 139.668 202.826C141.1 202.93 142.175 203.099 142.306 202.386C142.461 201.54 141.196 201.669 139.763 201.565C138.331 201.461 137.151 201.658 137.125 202.005Z" fill="#1A1B1C"/>
<path d="M132.439 202.154C132.524 202.518 131.38 203.074 129.897 203.4C128.413 203.726 127.301 204.067 127.049 203.334C126.752 202.471 128.108 202.414 129.591 202.088C131.075 201.762 132.357 201.792 132.439 202.154Z" fill="#1A1B1C"/>
<path d="M114.068 211.419C113.009 203.165 114.861 197.915 121.484 193.995C138.294 200.651 149.24 198.475 151.289 182.849C145.651 185.047 141.119 185.46 134.551 181.771C133.83 181.365 116.282 170.288 109.714 188.946C109.714 188.946 98.8341 193.866 107.455 209.448L114.068 211.419Z" fill="#1A1B1C"/>
<path d="M155.256 247.963L175.541 255.582C181.936 257.984 187.217 262.662 190.37 268.716C193.523 274.771 194.325 281.775 192.623 288.384L185.682 315.329H61.3085L60.4609 302.843L64.4739 278.908C65.4479 273.109 67.9142 267.662 71.6309 263.103C75.3476 258.543 80.187 255.027 85.6746 252.898L100.404 247.184L128.864 244.831L155.256 247.963Z" fill="#5551CE"/>
<path d="M103.156 349.213H59.5088L40.4375 294.473H84.0868L103.156 349.213Z" fill="#E9EAFF"/>
<path opacity="0.6" d="M85.4737 314.874H54.1452L49.6406 302.53H80.9691L85.4737 314.874Z" fill="#5551CE"/>
<path opacity="0.6" d="M87.7341 321.786H56.4057L55.2891 318.755H86.6175L87.7341 321.786Z" fill="#5551CE"/>
<path opacity="0.6" d="M89.7125 327.712H58.384L57.2695 324.681H88.598L89.7125 327.712Z" fill="#5551CE"/>
<path opacity="0.3" d="M91.6891 333.637H60.3627L59.2461 330.607H90.5746L91.6891 333.637Z" fill="#5551CE"/>
<path opacity="0.3" d="M93.6677 339.563H62.3393L61.2227 336.532H92.5511L93.6677 339.563Z" fill="#5551CE"/>
<path opacity="0.3" d="M95.6461 345.489H64.3176L63.2031 342.458H94.5316L95.6461 345.489Z" fill="#5551CE"/>
<path d="M128.857 244.814L120.323 257.613C112.99 255.652 106.186 252.084 100.406 247.167L112.441 240.861C117.414 243.739 123.119 245.107 128.857 244.797V244.814Z" fill="#E9EAFF"/>
<path d="M155.256 247.963C150.312 252.72 144.063 255.875 136.509 257.427L128.855 244.822C134.338 244.532 139.64 242.762 144.196 239.701L155.256 247.963Z" fill="#E9EAFF"/>
<path d="M165.979 280.199C159.199 285.489 146.698 311.731 146.698 311.731C146.698 311.731 106.229 316.811 97.7539 325.276L100.296 335.434L144.155 333.106L166.827 325.064L175.937 296.917L165.979 280.199Z" fill="#1A1B1C"/>
<path d="M94.4336 324.783C90.6919 324.328 80.2377 320.726 77.8753 319.566C77.6764 319.449 77.4513 319.383 77.2204 319.374C76.9895 319.366 76.7602 319.415 76.5531 319.517C76.3572 319.627 76.1906 319.782 76.067 319.97C75.9434 320.157 75.8666 320.371 75.843 320.595C75.8193 320.818 75.8495 321.043 75.9311 321.252C76.0126 321.462 76.1431 321.648 76.3116 321.797C78.5829 323.746 82.526 325.481 86.6195 327.195C80.5513 327.305 71.4024 323.113 70.3048 325.79C70.0506 326.425 70.3769 327.119 70.9405 327.496C74.695 330.012 85.4076 331.616 85.4076 331.616L85.2275 332.408C79.1042 332.793 68.631 330.092 69.6649 333.102C71.5719 336.503 84.7084 336.365 84.7084 336.365L84.8652 337.337C80.1869 337.485 75.1484 337.155 75.2141 339.281C75.2649 340.975 87.431 341.851 87.431 341.851C95.8066 346.25 103.746 342.593 103.746 342.593L107.445 330.531L101.07 322.467L94.3637 313.551C94.3637 313.551 92.0754 313.391 91.8784 316.051C91.6813 318.711 94.4336 324.783 94.4336 324.783Z" fill="#F9B384"/>
<path d="M185.681 315.329L178.901 334.295C175.829 342.902 167.479 349.56 158.349 349.19C138.24 349.319 118.988 347.478 103.402 342.56C104.371 338.843 105.176 334.674 104.638 326.757C119.575 322.313 135.042 319.909 151.781 318.715L167.53 273.426L185.681 315.329Z" fill="#5551CE"/>
<path d="M136.511 257.427L135.729 257.169C134.085 256.629 132.628 255.637 131.524 254.306C130.421 252.976 129.716 251.361 129.491 249.648L128.855 244.822L136.511 257.427Z" fill="#1A1B1C"/>
<path d="M128.857 244.822L127.609 251.205C127.387 252.344 126.885 253.411 126.149 254.308C125.413 255.206 124.465 255.908 123.391 256.35L120.316 257.62L128.857 244.822Z" fill="#1A1B1C"/>
<path d="M103.868 212.121C103.51 215.145 106.506 220.536 113.528 218.936C116.649 218.225 115.393 217.107 115.81 214.437C116.227 211.766 114.524 209.664 111.538 208.528C108.235 207.271 104.186 209.438 103.868 212.121Z" fill="#F9B384"/>
<path d="M106.411 212.997C106.916 212.756 107.465 212.62 108.025 212.598C108.584 212.576 109.143 212.668 109.665 212.869C110.188 213.07 110.664 213.375 111.065 213.766C111.465 214.157 111.781 214.626 111.994 215.143C112.195 215.643 113.015 215.425 112.812 214.919C112.561 214.279 112.179 213.697 111.692 213.211C111.204 212.726 110.622 212.346 109.98 212.097C109.338 211.847 108.652 211.734 107.964 211.763C107.276 211.792 106.601 211.963 105.983 212.265C105.491 212.5 105.921 213.23 106.407 212.997H106.411Z" fill="#1A1B1C"/>
<path d="M103.151 343.25C112.543 346.236 122.281 348.009 132.102 348.796C134.912 349.021 137.727 349.17 140.547 349.245C141.092 349.26 141.092 348.413 140.547 348.399C130.74 348.126 120.953 347.004 111.414 344.687C108.709 344.028 106.03 343.276 103.375 342.433C102.854 342.268 102.632 343.084 103.151 343.25Z" fill="#1A1B1C"/>
<path d="M107.528 339.58L111.766 340.991C112.283 341.165 112.505 340.357 111.99 340.175L107.753 338.765C107.234 338.592 107.011 339.4 107.528 339.58Z" fill="#1A1B1C"/>
<path d="M108.489 333.428L111.879 333.189C112.421 333.151 112.426 332.302 111.879 332.342L108.489 332.581C107.949 332.619 107.944 333.466 108.489 333.428Z" fill="#1A1B1C"/>
<path d="M109.897 328.194L115.268 327.983C115.81 327.959 115.812 327.113 115.268 327.136L109.897 327.348C109.354 327.371 109.35 328.217 109.897 328.194Z" fill="#1A1B1C"/>
<path d="M166.172 276.895C168.173 271.73 171.004 266.925 174.552 262.669C174.898 262.246 174.302 261.651 173.953 262.07C170.31 266.438 167.406 271.37 165.355 276.673C165.158 277.181 165.977 277.401 166.172 276.897V276.895Z" fill="#1A1B1C"/>
<path d="M75.8309 266.364C80.9098 268.867 85.0638 272.913 87.6962 277.921C87.9483 278.404 88.6814 277.976 88.4271 277.498C85.7254 272.367 81.4696 268.219 76.2674 265.647C75.7801 265.406 75.3499 266.136 75.8436 266.377L75.8309 266.364Z" fill="#1A1B1C"/>
<path d="M89.2989 284.416L90.6719 299.374C90.7206 299.912 91.5703 299.918 91.5194 299.374L90.1464 284.416C90.0977 283.879 89.2502 283.872 89.2989 284.416Z" fill="#1A1B1C"/>
<path d="M519.029 170.066H298.445V308.201H519.029V170.066Z" fill="white"/>
<path d="M519.029 170.066H298.445V195.546H519.029V170.066Z" fill="#DDDFE3"/>
<path d="M519.45 308.625H298.02V169.643H519.45V308.625ZM298.867 307.778H518.603V170.489H298.867V307.778Z" fill="#1A1B1C"/>
<path d="M499.932 189.045C498.696 189.045 497.488 188.679 496.46 187.993C495.433 187.307 494.632 186.332 494.159 185.192C493.686 184.051 493.563 182.797 493.804 181.586C494.045 180.375 494.64 179.263 495.514 178.39C496.389 177.518 497.502 176.923 498.714 176.683C499.926 176.442 501.183 176.566 502.325 177.039C503.466 177.512 504.442 178.312 505.128 179.338C505.815 180.365 506.181 181.572 506.18 182.806C506.179 184.461 505.52 186.047 504.348 187.217C503.177 188.386 501.588 189.044 499.932 189.045ZM499.932 177.405C498.864 177.405 497.82 177.722 496.931 178.315C496.043 178.907 495.351 179.75 494.942 180.736C494.533 181.721 494.427 182.806 494.635 183.852C494.843 184.899 495.358 185.86 496.113 186.614C496.868 187.369 497.831 187.883 498.878 188.091C499.926 188.299 501.012 188.192 501.999 187.784C502.986 187.375 503.829 186.684 504.423 185.797C505.016 184.91 505.333 183.867 505.333 182.8C505.329 181.371 504.759 180.001 503.747 178.991C502.734 177.981 501.363 177.413 499.932 177.412V177.405Z" fill="#1A1B1C"/>
<path d="M451.901 222.076L451.278 221.501C460.01 212.058 463.442 204.699 461.771 199.002C460.671 195.252 457.281 192.148 451.408 189.509C446.149 187.147 439.627 185.45 433.322 183.809C431.828 183.422 430.285 183.02 428.809 182.622L429.02 181.805C430.493 182.203 432.036 182.603 433.527 182.99C446.524 186.376 459.965 189.868 462.576 198.765C464.347 204.771 460.853 212.396 451.901 222.076Z" fill="#1A1B1C"/>
<path d="M373.667 209.567C371.436 205.233 371.089 200.791 372.635 196.363C373.917 192.694 377.284 187.022 386.043 180.842C389.205 178.61 392.552 176.651 396.046 174.984L396.396 175.757C396.209 175.841 377.75 184.296 373.434 196.645C371.968 200.843 372.301 205.061 374.422 209.18L373.667 209.567Z" fill="#1A1B1C"/>
<path d="M382.238 212.335C371.079 203.023 377.717 188.07 397.352 174.242C382.662 159.851 392.267 141.898 416.209 143.274C436.056 144.474 450.321 160.098 432.63 181.79C457.631 190.755 466.424 216.428 450.463 220.8L382.238 212.335Z" fill="#1A1B1C"/>
<path d="M444.294 282.213C443.684 288.486 441.514 300.803 440.357 308.731H375.522C373.297 295.097 369.255 272.013 367.763 256.208C366.899 247.032 366.593 237.771 367.415 229.119L444.675 230.245C445.201 236.73 445.497 242.943 445.616 248.894C445.828 260.017 445.386 271.142 444.294 282.213Z" fill="#5551CE"/>
<path d="M443.541 288.382C431.675 275.824 435.065 240.412 435.065 240.412L445.609 248.903C445.837 260.983 445.094 278.647 443.541 288.382Z" fill="#5551CE"/>
<path d="M493.227 244.873L493.199 245.104L488.627 280.833C486.79 286.823 484.419 291.754 481.342 295.309C481.311 295.353 481.272 295.398 481.232 295.444C475.838 301.609 467.316 302.322 460.917 298.733C457.516 296.839 454.896 293.802 453.523 290.162L441.543 258.777L450.777 245.252L467.269 247.472L469.625 255.836L479.584 239.894L480.334 238.696L493.227 244.873Z" fill="#F9B384"/>
<path d="M481.726 228.732C483.455 225.071 486.868 211.239 487.16 208.435C487.228 207.8 487.512 207.417 487.874 207.207C488.087 207.092 488.323 207.03 488.564 207.025C488.806 207.02 489.045 207.073 489.261 207.179C489.478 207.285 489.666 207.441 489.81 207.634C489.954 207.828 490.05 208.053 490.089 208.291C490.563 211.465 489.877 216.047 489.101 220.749C492.678 215.298 494.1 204.585 497.153 205.127C497.869 205.254 498.322 205.954 498.343 206.68C498.485 211.533 493.811 222.186 493.811 222.186L494.633 222.474C498.492 217.131 502.03 206.069 504.168 208.733C506.172 212.413 498.526 224.271 498.526 224.271L499.32 224.969C502.132 220.804 504.717 216.036 506.617 217.315C508.12 218.324 501.956 229.886 501.956 229.886C501.166 240.016 493.294 245.123 493.294 245.123L480.181 241.572L476.488 231.16L472.219 219.964C472.219 219.964 473.382 217.795 475.918 219.137C478.454 220.479 481.726 228.732 481.726 228.732Z" fill="#F9B384"/>
<path d="M467.27 247.464L441.565 258.756L435.064 240.412L372.628 239.845L367.899 255.988L367.831 256.217L363.805 255.793L341.27 253.398L345.143 240.514C355.398 212.485 365.483 208.524 384.027 204.409L387.137 203.715L402.291 200.355L418.114 200.626L434.361 205.806L438.734 207.203C444.869 209.16 450.401 212.65 454.807 217.342C459.212 222.034 462.344 227.772 463.905 234.012L467.27 247.464Z" fill="#5551CE"/>
<path d="M367.755 256.208L363.806 255.785C363.458 248.886 364.628 240.04 367.408 229.119C366.586 237.771 366.891 247.032 367.755 256.208Z" fill="#5551CE"/>
<path d="M434.36 205.806C426.461 218.75 409.447 226.233 399.798 225.395C386.492 224.239 385.789 212.257 387.136 203.707L402.29 200.346L418.113 200.626L434.36 205.806Z" fill="#F9B384"/>
<path d="M426.868 210.784L391.137 212.477C392.829 210.044 394.268 207.446 395.434 204.723C397.052 200.964 398.442 196.435 399.459 190.755L411.223 187.022L424.317 182.857C423.164 192.685 425.182 207.372 426.868 210.784Z" fill="#F9B384"/>
<path d="M430.828 168.602L424.328 185.667L411.479 192.651C403.216 195.546 398.673 194.192 395.987 192.287C394.725 191.42 393.695 190.258 392.987 188.901C391.721 186.429 391.276 183.618 391.715 180.876C392.139 178.218 393.359 175.636 395.232 173.258C396.24 171.97 397.376 170.787 398.623 169.728L396.504 159.849L400.462 153.364L416.844 150.681L430.828 168.602Z" fill="#F9B384"/>
<path d="M428.991 176.641C420.177 172.46 413.878 165.495 413.454 155.478C406.276 154.522 401.012 157.73 397.069 163.802L395.232 165.601L394.809 157.559L400.212 150.469L419.069 147.612L432.629 163.167L434.536 174.807L428.991 176.641Z" fill="#1A1B1C"/>
<path d="M434.428 180.521C434.322 183.483 430.72 188.245 424.364 185.706C421.54 184.578 422.881 183.68 422.881 181.05C422.881 178.419 424.788 176.639 427.754 175.971C431.038 175.23 434.521 177.892 434.428 180.521Z" fill="#F9B384"/>
<path d="M426.641 183.325C426.547 183.325 426.455 183.293 426.38 183.235C426.306 183.176 426.253 183.095 426.23 183.003C426.079 182.426 426.097 181.817 426.282 181.249C426.466 180.681 426.809 180.178 427.271 179.799C428.43 178.819 430.118 178.667 431.79 179.393C431.887 179.441 431.962 179.525 431.999 179.627C432.036 179.729 432.032 179.841 431.988 179.941C431.945 180.04 431.865 180.119 431.765 180.161C431.665 180.203 431.553 180.205 431.451 180.167C430.084 179.575 428.724 179.676 427.817 180.444C427.479 180.723 427.227 181.093 427.091 181.51C426.956 181.927 426.942 182.373 427.052 182.798C427.066 182.852 427.069 182.908 427.061 182.963C427.053 183.018 427.034 183.071 427.006 183.119C426.977 183.166 426.939 183.208 426.895 183.241C426.85 183.274 426.799 183.298 426.745 183.312C426.711 183.32 426.676 183.325 426.641 183.325Z" fill="#1A1B1C"/>
<path d="M404.268 170.411C404.461 171.782 402.819 172.46 401.819 172.891C400.819 173.323 399.815 173.82 399.321 174.815C398.262 176.942 400.044 179.003 401.895 179.839C402.389 180.061 402.819 179.331 402.319 179.107C401.353 178.673 400.381 178.004 400.018 176.959C399.62 175.803 400.09 174.785 401.107 174.174C402.035 173.615 403.12 173.363 403.982 172.692C404.766 172.079 405.222 171.186 405.082 170.189C405.006 169.651 404.188 169.88 404.264 170.413L404.268 170.411Z" fill="#1A1B1C"/>
<path d="M401.05 183.323C402.062 183.588 403.122 183.611 404.145 183.39C405.168 183.17 406.124 182.712 406.936 182.053C407.36 181.712 406.76 181.117 406.336 181.454C405.633 182.009 404.809 182.393 403.93 182.574C403.052 182.755 402.143 182.729 401.277 182.497C400.749 182.355 400.522 183.172 401.05 183.312V183.323Z" fill="#1A1B1C"/>
<path d="M411.263 172.055C410.972 172.972 410.203 173.537 409.557 173.342C408.911 173.147 408.614 172.225 408.905 171.308C409.195 170.392 409.964 169.816 410.61 170.022C411.256 170.227 411.545 171.137 411.263 172.055Z" fill="#1A1B1C"/>
<path d="M402.417 170.242C402.053 171.099 401.265 171.586 400.656 171.327C400.048 171.069 399.849 170.163 400.214 169.306C400.578 168.449 401.366 167.965 401.974 168.223C402.582 168.481 402.782 169.385 402.417 170.242Z" fill="#1A1B1C"/>
<path d="M403.706 165.842C403.706 166.193 402.859 166.494 401.785 166.517C400.71 166.54 399.909 166.646 399.837 165.922C399.753 165.076 400.685 165.268 401.759 165.247C402.833 165.226 403.706 165.495 403.706 165.842Z" fill="#1A1B1C"/>
<path d="M409.331 166.815C409.142 167.192 409.865 167.808 410.945 168.193C412.026 168.578 412.797 168.964 413.246 168.206C413.776 167.313 412.714 167.211 411.632 166.828C410.549 166.445 409.521 166.437 409.331 166.815Z" fill="#1A1B1C"/>
<path d="M386.391 228.349C388.664 231.591 392.323 233.498 396.164 234.177C400.658 234.973 405.188 234.074 409.43 232.542C412.098 231.576 414.674 230.379 417.242 229.179C417.736 228.948 417.308 228.218 416.818 228.446C409.208 232.002 400.169 235.989 391.929 231.94C390.014 231.026 388.362 229.643 387.126 227.919C386.814 227.475 386.079 227.898 386.393 228.343L386.391 228.349Z" fill="#5551CE"/>
<path d="M449.618 214.919C443.174 216.254 437.67 220.948 435.269 227.056C435.07 227.564 435.89 227.784 436.087 227.282C438.382 221.444 443.715 217.008 449.844 215.734C450.378 215.624 450.152 214.807 449.618 214.919Z" fill="#5551CE"/>
<path d="M450.12 216.519C447.015 217.948 444.42 220.289 442.683 223.23C442.405 223.7 443.136 224.125 443.414 223.653C445.081 220.84 447.571 218.604 450.548 217.247C451.044 217.021 450.614 216.29 450.124 216.515L450.12 216.519Z" fill="#5551CE"/>
<path d="M464.343 245.703C460.782 246.347 457.352 247.574 454.192 249.334C453.717 249.601 454.143 250.331 454.615 250.067C457.716 248.344 461.081 247.145 464.574 246.518C465.11 246.422 464.883 245.605 464.347 245.703H464.343Z" fill="#5551CE"/>
<path d="M344.421 251.027L355.876 252.625C356.41 252.699 356.64 251.882 356.1 251.808L344.646 250.211C344.112 250.136 343.881 250.951 344.421 251.027Z" fill="#5551CE"/>
<path d="M388.956 270.948C392.121 277.24 397.102 282.438 403.257 285.871C409.411 289.304 416.455 290.815 423.478 290.207C424.018 290.16 424.022 289.311 423.478 289.36C416.603 289.97 409.705 288.499 403.678 285.14C397.652 281.781 392.777 276.689 389.687 270.525C389.441 270.038 388.71 270.466 388.956 270.948Z" fill="#5551CE"/>
<path d="M411.787 279.515C414.392 282.791 417.635 285.506 421.321 287.493C421.8 287.754 422.228 287.021 421.745 286.763C418.123 284.809 414.938 282.139 412.382 278.916C412.043 278.493 411.448 279.092 411.782 279.515H411.787Z" fill="#5551CE"/>
<path d="M380.909 217.175C381.46 219.74 382.271 222.506 383.848 224.648C384.168 225.071 384.907 224.66 384.581 224.224C383.043 222.136 382.263 219.459 381.727 216.953C381.612 216.422 380.797 216.646 380.909 217.179V217.175Z" fill="#5551CE"/>
<path d="M434.428 308.659L397.672 308.98L359.533 308.659C352.448 308.295 346.651 306.475 342.583 303.275C337.794 299.525 335.379 293.853 335.998 286.361C336.065 285.557 336.167 284.736 336.303 283.889L341.269 253.389L367.83 256.217L361.898 284.71C382.094 290.357 392.264 293.32 397.841 296.282H419.809L434.428 308.659Z" fill="#F9B384"/>
<path d="M470.235 169.728H469.388V167.8H470.235V169.728ZM470.235 162.833H469.388V157.876H470.235V162.833ZM470.235 152.897H469.388V147.93H470.235V152.897ZM470.235 142.963H469.388V137.996H470.235V142.963ZM470.235 133.027H469.388V128.06H470.235V133.027ZM470.235 123.093H469.388V118.126H470.235V123.093ZM464.875 118.513H459.9V117.666H464.875V118.513ZM454.927 118.513H449.954V117.666H454.927V118.513ZM444.981 118.513H440.006V117.666H444.981V118.513ZM435.034 118.513H430.061V117.666H435.034V118.513ZM425.088 118.513H420.115V117.666H425.088V118.513ZM415.13 118.513H410.167V117.666H415.147L415.13 118.513ZM405.188 118.513H400.216V117.666H405.188V118.513ZM395.23 118.513H390.257V117.666H395.23V118.513ZM385.284 118.513H380.312V117.666H385.284V118.513ZM375.326 118.513H370.353V117.666H375.326V118.513ZM365.38 118.513H360.408V117.666H365.38V118.513ZM355.435 118.513H350.46V117.666H355.435V118.513ZM345.476 118.513H340.504V117.666H345.476V118.513ZM335.531 118.513H330.556V117.666H335.531V118.513ZM325.573 118.513H320.648V117.666H325.621L325.573 118.513Z" fill="#1A1B1C"/>
<path d="M490.435 48.5332H376.867V126.978H490.435V48.5332Z" fill="#E9EAFF"/>
<path d="M402.504 81.3867H393.605V116.608H402.504V81.3867Z" fill="#5551CE"/>
<path d="M420.301 92.7618H411.402V116.608H420.301V92.7618Z" fill="#5551CE"/>
<path d="M438.102 85.7335H429.203V116.608H438.102V85.7335Z" fill="#5551CE"/>
<path d="M455.899 71.8654H447V116.608H455.899V71.8654Z" fill="#5551CE"/>
<path d="M473.696 60.994H464.797V116.608H473.696V60.994Z" fill="#5551CE"/>
<path d="M66.3954 254.38H61.4226V253.533H66.3954V254.38ZM56.4498 254.38H51.4748V253.533H56.4498V254.38ZM48.5975 252.287H47.75V247.32H48.5975V252.287ZM48.5975 242.353H47.75V237.384H48.5975V242.353ZM48.5975 232.406H47.75V227.439H48.5975V232.406ZM48.5975 222.472H47.75V217.514H48.5975V222.472ZM48.5975 212.525H47.75V207.559H48.5975V212.525ZM48.5975 202.592H47.75V197.625H48.5975V202.592ZM48.5975 192.645H47.75V187.716H48.5975V192.645ZM48.5975 182.711H47.75V177.769H48.5975V182.711ZM48.5975 172.764H47.75V167.84H48.5975V172.764ZM48.5975 162.83H47.75V157.906H48.5975V162.83ZM48.5975 152.884H47.75V147.97H48.5975V152.884ZM48.5975 142.95H47.75V138.036H48.5975V142.95ZM48.5975 133.016H47.75V128.1H48.5975V133.016ZM48.5975 123.08H47.75V118.166H48.5975V123.08ZM123.179 117.243H121.425V116.397H123.179V117.243ZM116.452 117.243H111.479V116.397H116.452V117.243ZM106.506 117.243H101.533V116.397H106.506V117.243ZM96.5585 117.243H91.5857V116.397H96.5585V117.243ZM86.6129 117.243H81.6507V116.397H86.6235L86.6129 117.243ZM76.6652 117.243H71.6924V116.397H76.6652V117.243ZM66.7196 117.243H61.7468V116.397H66.7196V117.243ZM56.7739 117.243H51.799V116.397H56.7739V117.243Z" fill="#1A1B1C"/>
<path d="M91.0635 48.5332H12.6914V149.5H91.0635V48.5332Z" fill="#5551CE"/>
<path d="M34.1006 71.2919H22.0234V83.3548H34.1006V71.2919Z" fill="white"/>
<path d="M63.912 71.2919H42.082V75.8356H63.912V71.2919Z" fill="#E9EAFF"/>
<path d="M82.1505 78.7603H42.082V83.304H82.1505V78.7603Z" fill="white"/>
<path d="M27.0026 81.3973L24.6211 77.4567L25.3203 77.0335L27.0005 79.8101L31.1872 72.803L31.8907 73.222L27.0026 81.3973Z" fill="#1A1B1C"/>
<path d="M34.1006 94.4294H22.0234V106.492H34.1006V94.4294Z" fill="white"/>
<path d="M82.1505 94.4294H42.082V98.9731H82.1505V94.4294Z" fill="#E9EAFF"/>
<path d="M68.3191 101.898H42.082V106.442H68.3191V101.898Z" fill="white"/>
<path d="M34.1006 117.569H22.0234V129.632H34.1006V117.569Z" fill="white"/>
<path d="M79.6207 117.569H42.082V122.113H79.6207V117.569Z" fill="#E9EAFF"/>
<path d="M63.7891 125.038H42.082V129.581H63.7891V125.038Z" fill="white"/>
<path d="M27.5165 104.81L25.1328 100.869L25.8341 100.446L27.5122 103.223L31.7011 96.2156L32.4045 96.6346L27.5165 104.81Z" fill="#1A1B1C"/>
<path d="M27.411 128.089L25.0273 124.149L25.7287 123.725L27.4067 126.502L31.5956 119.495L32.299 119.914L27.411 128.089Z" fill="#1A1B1C"/>
<path d="M60.5786 182.605H35.598C34.133 182.605 32.9453 183.792 32.9453 185.255V199.845C32.9453 201.308 34.133 202.494 35.598 202.494H60.5786C62.0437 202.494 63.2313 201.308 63.2313 199.845V185.255C63.2313 183.792 62.0437 182.605 60.5786 182.605Z" fill="white"/>
<path d="M60.5805 202.915H35.5999C34.7843 202.914 34.0025 202.59 33.4258 202.014C32.849 201.438 32.5246 200.657 32.5234 199.842V185.255C32.5246 184.44 32.849 183.659 33.4256 183.082C34.0023 182.506 34.7841 182.181 35.5999 182.18H60.5805C61.3963 182.181 62.1781 182.506 62.7548 183.082C63.3314 183.659 63.6559 184.44 63.657 185.255V199.842C63.6559 200.657 63.3314 201.438 62.7547 202.014C62.178 202.59 61.3961 202.914 60.5805 202.915ZM35.5999 183.022C35.0087 183.023 34.4421 183.258 34.0243 183.676C33.6065 184.094 33.3715 184.66 33.371 185.251V199.838C33.3715 200.429 33.6065 200.994 34.0244 201.412C34.4423 201.829 35.0089 202.064 35.5999 202.065H60.5805C61.1715 202.064 61.7381 201.829 62.156 201.412C62.5739 200.994 62.8089 200.429 62.8095 199.838V185.251C62.8089 184.66 62.574 184.094 62.1561 183.676C61.7383 183.258 61.1717 183.023 60.5805 183.022H35.5999Z" fill="#1A1B1C"/>
<path d="M48.0933 194.727C47.5199 194.724 46.9655 194.521 46.5254 194.154L33.4609 183.805L33.9228 183.223L46.9916 193.576C47.2968 193.839 47.6863 193.983 48.0891 193.983C48.4919 193.983 48.8813 193.839 49.1866 193.576L62.3041 183.166L62.766 183.748L49.657 194.158C49.2176 194.523 48.6649 194.724 48.0933 194.727Z" fill="#1A1B1C"/>
<path d="M315.955 263.672H215.211V331.273H315.955V263.672Z" fill="#E9EAFF"/>
<path d="M249.739 272.015H225.727V292.331H249.739V272.015Z" fill="white"/>
<path d="M304.738 272.015H260.477V292.331H304.738V272.015Z" fill="white"/>
<path d="M304.656 297.975H225.727V303.901H304.656V297.975Z" fill="white"/>
<path d="M276.58 307.006H225.727V312.931H276.58V307.006Z" fill="white"/>
<path d="M267.541 316.034H225.727V321.96H267.541V316.034Z" fill="white"/>
<path d="M379.975 349.175H377.07V348.329H379.127V346.263H379.975V349.175ZM372.097 349.175H367.122V348.329H372.097V349.175ZM362.139 349.175H357.176V348.329H362.149L362.139 349.175ZM352.193 349.175H347.22V348.329H352.193V349.175ZM342.235 349.175H337.262V348.329H342.26L342.235 349.175ZM332.289 349.175H327.316V348.329H332.302L332.289 349.175ZM322.331 349.175H317.358V348.329H322.331V349.175ZM312.385 349.175H307.412V348.329H312.385V349.175ZM302.439 349.175H297.464V348.329H302.439V349.175ZM292.481 349.175H287.508V348.329H292.481V349.175ZM282.535 349.175H277.561V348.329H282.535V349.175ZM272.577 349.175H272.34V348.329H272.636L272.577 349.175ZM379.975 341.294H379.127V336.327H379.975V341.294ZM379.975 331.36H379.127V328.131H381.714V328.977H379.975V331.36ZM490.999 328.977H486.154V328.131H490.152V328.004H490.999V328.977ZM481.181 328.977H476.206V328.131H481.181V328.977ZM471.233 328.977H466.26V328.131H471.233V328.977ZM461.288 328.977H456.315V328.131H461.288V328.977ZM451.34 328.977H446.367V328.131H451.34V328.977ZM441.394 328.977H436.421V328.131H441.394V328.977ZM431.436 328.977H426.463V328.131H431.436V328.977ZM421.49 328.977H416.517V328.131H421.503L421.49 328.977ZM411.542 328.977H406.57V328.131H411.545L411.542 328.977ZM401.597 328.977H396.624V328.131H401.597V328.977ZM391.651 328.977H386.676V328.131H391.651V328.977ZM490.999 323.037H490.152V318.068H490.999V323.037ZM490.999 313.09H490.152V308.134H490.999V313.09Z" fill="#1A1B1C"/>
<path d="M379.562 332.884C381.889 332.884 383.776 330.999 383.776 328.675C383.776 326.35 381.889 324.465 379.562 324.465C377.234 324.465 375.348 326.35 375.348 328.675C375.348 330.999 377.234 332.884 379.562 332.884Z" fill="#1A1B1C"/>
</svg>
