<svg width="381" height="380" viewBox="0 0 381 380" fill="none" xmlns="http://www.w3.org/2000/svg">
<g clip-path="url(#clip0_1040_3580)">
<path opacity="0.12" d="M346.073 174.6C346.073 175.423 345.982 176.236 345.931 177.048C341.868 240.92 319.044 312.999 296.798 324.63C259.377 344.194 183.225 335.194 143.041 316.859C102.857 298.524 85.5482 322.73 61.3018 320.303C38.0711 317.977 3.06763 287.026 0.192999 239.945C0.0609488 237.913 0 235.821 0 233.718C0 233.718 3.08778e-06 231.27 0.304734 227.197C1.32051 212.793 5.76958 178.166 24.9372 160.522C49.529 137.901 79.6568 151.989 110.14 144.777C113.122 144.064 116.023 143.042 118.794 141.73C126.342 138.215 133.371 132.68 140.126 126.077C156.774 109.896 171.97 87.3558 189.695 72.7389C217.334 49.9348 270.114 44.8357 321.746 79.575C342.295 93.3997 348.46 131.958 346.073 174.6Z" fill="#5551CE"/>
<path d="M71.1141 239.143L0.192999 239.945C0.0609487 237.914 0 235.821 0 233.719C0 233.719 3.08778e-06 231.271 0.304734 227.197C1.3401 227.461 2.40563 227.587 3.47394 227.573C9.24351 227.573 12.24 221.123 21.7578 221.123C31.2756 221.123 36.3037 234.267 42.5405 234.267C48.7773 234.267 50.8495 231.271 56.8527 234.267C61.4303 236.368 66.2083 238.002 71.1141 239.143Z" fill="white"/>
<path d="M324.042 161.345C320.811 161.183 319.887 164.342 314.107 164.342C308.328 164.342 305.341 157.892 295.874 157.892C286.407 157.892 281.328 171.036 275.092 171.036C268.855 171.036 266.772 167.988 260.769 171.036C256.175 173.14 251.38 174.774 246.457 175.911L347.821 177.069C347.821 177.069 338.547 162.026 324.042 161.345Z" fill="white"/>
<path d="M218.471 140.593L118.793 141.71C126.34 138.196 133.369 132.66 140.124 126.057H140.845C144.076 125.895 145.01 129.054 150.78 129.054C156.549 129.054 159.556 122.604 169.013 122.604C178.47 122.604 183.569 135.748 189.795 135.748C196.022 135.748 198.115 132.751 204.118 135.748C208.726 137.844 213.535 139.467 218.471 140.593Z" fill="white"/>
<path d="M345.445 59.3516C345.445 59.3516 351.54 66.462 352.678 66.1065C353.815 65.751 350.859 56.3652 350.859 56.3652" fill="#1A1B1C"/>
<path d="M331.587 103.436C331.587 103.436 331.932 106.25 332.603 110.292C333.494 116.314 334.688 122.288 336.178 128.19C337.366 132.67 338.758 136.438 340.292 138.074C336.513 137.332 318.24 143.599 306.609 151.563C301.875 154.793 298.239 158.308 297.111 161.721C295.324 156.703 295.029 149.999 295.263 143.081C295.527 135.453 296.441 127.55 296.725 121.364C296.817 119.333 296.847 117.484 296.725 115.889C293.309 117.349 290.221 119.481 287.644 122.156C285.674 116.235 280.361 109.886 277.07 106.351C286.466 92.7804 299.58 83.608 306.629 81.9726C320.545 78.7526 333.486 84.38 340.272 86.4217C341.375 89.5296 342.221 92.7231 342.801 95.9699C343.187 98.1211 343.351 100.306 343.288 102.491C339.471 103.473 335.513 103.792 331.587 103.436Z" fill="#5551CE"/>
<path d="M320.323 63.4348C319.424 63.8719 318.502 64.2585 317.56 64.5928C314.207 65.8394 310.626 66.3554 307.057 66.1062L304.588 69.9154C304.588 69.9154 304.324 67.315 302.08 68.0057C299.835 68.6965 300.048 72.8408 303.644 72.465L301.694 77.8994C301.387 77.1912 300.9 76.5758 300.282 76.1142C299.663 75.6526 298.935 75.3611 298.169 75.2685C295.365 74.7708 292.023 70.1896 295.66 67.6502C291.597 62.7948 293.059 56.7916 298.707 54.7499C304.355 52.7082 309.129 54.7499 315.163 52.952C321.196 51.1541 322.405 49.8438 322.405 49.8438C322.405 49.8438 327.707 59.8491 320.323 63.4348Z" fill="#1A1B1C"/>
<path d="M315.388 78.8745C315.137 79.0199 314.876 79.1456 314.606 79.2503C311.594 80.6516 308.162 80.8549 305.007 79.8192C303.78 79.4129 302.649 78.7595 301.685 77.8994L303.635 72.465C300.07 72.8408 299.826 68.7066 302.071 68.0058C304.316 67.3049 304.58 69.9154 304.58 69.9154L306.388 67.122L307.048 66.1063C310.62 66.3569 314.205 65.8409 317.561 64.5928C317.917 65.442 318.216 66.3141 318.455 67.2033C319.39 70.6061 320.111 76.3452 315.388 78.8745Z" fill="#FFBF9D"/>
<path d="M315.751 84.4211C315.101 86.798 307.432 88.8397 305.004 84.6344C305.715 83.0295 305.004 79.8197 305.004 79.8197C308.16 80.8554 311.591 80.6521 314.603 79.2508C314.873 79.1461 315.135 79.0204 315.385 78.875C315.357 80.7305 315.479 82.5853 315.751 84.4211Z" fill="#FFBF9D"/>
<path d="M287.634 122.167C277.09 132.924 274.622 150.456 275.648 151.35C276.918 152.437 278.472 156.084 276.796 157.749C277.03 161.335 275.78 163.468 270.163 162.198C264.546 160.929 265.135 158.044 267.735 151.025C263.246 134.123 268.67 118.52 277.06 106.331C280.351 109.896 285.664 116.245 287.634 122.167Z" fill="#FFBF9D"/>
<path d="M357.093 88.7787C355.326 97.2807 349.119 100.968 343.279 102.512C343.341 100.327 343.177 98.1419 342.791 95.9907C342.211 92.7439 341.366 89.5503 340.262 86.4424C341.536 86.9471 342.907 87.1588 344.274 87.062C348.256 86.097 347.504 74.3446 346.468 71.4598C345.432 68.575 344.741 62.5108 348.378 60.7231C352.014 58.9353 354.726 59.5042 354.787 63.872C354.848 68.2398 352.014 68.2195 351.74 70.0783C351.598 71.216 354.137 76.0511 355.803 80.8557C356.829 83.8116 357.53 86.6862 357.093 88.7787Z" fill="#FFBF9D"/>
<path d="M351.386 227.888C350.298 228.662 349.044 229.169 347.724 229.368C346.404 229.568 345.056 229.454 343.788 229.036C342.453 228.63 341.196 228.002 340.07 227.177C338.378 225.99 337.023 224.384 336.139 222.515C335.88 221.799 335.824 221.026 335.977 220.28C336.993 213.281 348.166 197.517 348.603 190.305C349.131 182.178 335.621 169.359 335.621 169.359C335.621 169.359 336.464 175.454 334.199 190.183C333.57 194.317 332.686 199.142 331.467 204.688C325.931 229.971 300.466 256.116 295.448 255.598C294.68 255.515 293.92 255.376 293.172 255.182C291.575 254.78 290.079 254.046 288.784 253.029C287.608 252.041 286.655 250.815 285.987 249.432C285.32 248.048 284.954 246.539 284.914 245.004C284.914 244.841 284.914 244.679 284.914 244.516C284.569 236.888 307.078 215.597 307.596 203.987C308.114 192.377 297.733 178.715 297.093 161.741C301.014 149.846 334.961 137.027 340.274 138.074L340.782 138.49C344.672 141.68 369.528 162.473 372.89 175.058C376.496 188.751 356.922 223.906 351.386 227.888Z" fill="#1A1B1C"/>
<path d="M293.17 255.182C288.833 261.449 282.819 283.796 276.044 283.075C268.548 282.262 272.469 266.914 273.505 262.059C274.541 257.203 272.489 251.556 273.972 249.483C275.282 247.665 282.098 246.558 284.912 245.004C285.369 251.129 289.066 254.105 293.17 255.182Z" fill="#5551CE"/>
<path d="M343.787 229.066C342.985 230.915 341.969 233.343 341.156 235.649C339.541 240.27 342.781 258.392 335.732 256.553C328.683 254.715 327.89 244.425 328.622 239.813C329.353 235.202 325.97 230.458 326.885 227.116C327.657 224.333 333.396 222.108 336.027 220.311C335.873 221.056 335.93 221.83 336.189 222.545C336.942 224.094 338.005 225.472 339.312 226.594C340.619 227.716 342.142 228.557 343.787 229.066Z" fill="#5551CE"/>
<path d="M345.302 56.7513C345.474 57.2549 345.492 57.7981 345.356 58.3124C345.219 58.8266 344.933 59.2888 344.534 59.6405C344.134 59.9923 343.64 60.2178 343.112 60.2886C342.585 60.3594 342.049 60.2723 341.571 60.0383C341.093 59.8043 340.695 59.4339 340.427 58.9739C340.16 58.514 340.035 57.985 340.068 57.4539C340.101 56.9229 340.29 56.4134 340.613 55.9901C340.935 55.5667 341.376 55.2484 341.879 55.0753C342.555 54.8455 343.295 54.8928 343.936 55.2069C344.578 55.521 345.069 56.0762 345.302 56.7513Z" fill="#5551CE"/>
<path d="M369.019 46.6647C369.293 47.4609 369.324 48.3205 369.11 49.1347C368.895 49.949 368.444 50.6812 367.813 51.2389C367.182 51.7966 366.4 52.1546 365.566 52.2676C364.731 52.3806 363.882 52.2436 363.126 51.8739C362.369 51.5041 361.739 50.9183 361.316 50.1905C360.892 49.4628 360.694 48.6257 360.747 47.7853C360.799 46.9449 361.099 46.1389 361.61 45.4693C362.121 44.7998 362.818 44.2967 363.615 44.0237C364.682 43.6582 365.85 43.731 366.863 44.2262C367.876 44.7214 368.652 45.5984 369.019 46.6647Z" fill="#5551CE"/>
<path d="M366.986 55.9185L344.873 60.6215C344.648 60.6639 344.415 60.6287 344.212 60.5218C344.009 60.4148 343.848 60.2423 343.756 60.0324L341.724 54.9535C341.644 54.7394 341.639 54.5047 341.709 54.2872C341.779 54.0697 341.92 53.8822 342.11 53.7549L361.237 41.6977C361.36 41.6251 361.497 41.5793 361.639 41.5631C361.781 41.547 361.924 41.561 362.06 41.6041C362.197 41.6472 362.322 41.7186 362.429 41.8135C362.535 41.9084 362.621 42.0247 362.68 42.1548L367.758 54.5777C367.808 54.7163 367.827 54.8639 367.814 55.0105C367.8 55.157 367.756 55.299 367.682 55.4265C367.609 55.554 367.509 55.664 367.388 55.749C367.268 55.8339 367.131 55.8918 366.986 55.9185Z" fill="#1A1B1C"/>
<g style="mix-blend-mode:overlay" opacity="0.15">
<g style="mix-blend-mode:overlay" opacity="0.15">
<path d="M354.147 194.987C351.892 202.433 343.238 214.723 342.375 223.043C342.331 223.862 342.1 224.66 341.7 225.377C341.301 226.093 340.743 226.709 340.069 227.177C338.376 225.99 337.021 224.383 336.138 222.514C335.878 221.799 335.822 221.025 335.975 220.28C336.991 213.281 348.164 197.516 348.601 190.304C349.129 182.178 335.62 169.359 335.62 169.359L334.238 156.54C334.238 156.54 345.584 166.586 348.743 175.586C351.903 184.585 356.402 187.541 354.147 194.987Z" fill="#1A1B1C"/>
</g>
</g>
<g style="mix-blend-mode:overlay" opacity="0.15">
<g style="mix-blend-mode:overlay" opacity="0.15">
<path d="M311.202 207.634C306.824 220.778 294.95 242.17 288.784 253.029C287.608 252.041 286.655 250.815 285.987 249.432C285.32 248.048 284.954 246.539 284.914 245.004C284.914 244.841 284.914 244.679 284.914 244.516C284.569 236.888 307.078 215.597 307.596 203.987C308.114 192.377 297.733 178.715 297.093 161.741C301.014 149.846 334.961 137.027 340.274 138.074L340.782 138.49C335.124 140.654 312.34 149.826 305.869 159.821C298.393 171.289 317.266 189.451 311.202 207.634Z" fill="#1A1B1C"/>
</g>
</g>
<path d="M356.648 70.931C356.648 70.931 356.709 70.159 356.648 70.931V70.931Z" fill="#5551CE"/>
<g style="mix-blend-mode:overlay" opacity="0.15">
<g style="mix-blend-mode:overlay" opacity="0.15">
<path d="M357.096 88.7787C355.329 97.2807 349.122 100.968 343.282 102.512C339.466 103.486 335.511 103.798 331.59 103.436L330.422 95.9399C334.519 96.5868 338.691 96.604 342.794 95.9907C348.817 94.9749 354.912 91.9276 355.593 83.8014C355.684 82.7247 355.776 81.7699 355.847 80.8252C356.832 83.8116 357.533 86.6862 357.096 88.7787Z" fill="#1A1B1C"/>
</g>
</g>
<g style="mix-blend-mode:overlay" opacity="0.15">
<g style="mix-blend-mode:overlay" opacity="0.15">
<path d="M306.56 151.563C301.826 154.793 298.19 158.308 297.062 161.721C292.674 149.359 297.286 126.737 296.717 115.879C300.18 120.044 298.677 129.622 302.375 137.474C305.026 143.152 305.249 148.434 306.56 151.563Z" fill="#1A1B1C"/>
</g>
</g>
<path d="M311.691 71.0536C312.128 71.0536 312.483 70.5897 312.483 70.0175C312.483 69.4453 312.128 68.9814 311.691 68.9814C311.253 68.9814 310.898 69.4453 310.898 70.0175C310.898 70.5897 311.253 71.0536 311.691 71.0536Z" fill="#1A1B1C"/>
<path d="M317.396 69.4074C317.36 69.5578 317.282 69.695 317.171 69.8031C317.06 69.9112 316.921 69.9859 316.77 70.0186C316.619 70.0513 316.461 70.0406 316.316 69.9879C316.17 69.9351 316.043 69.8424 315.947 69.7204C315.852 69.5984 315.793 69.452 315.778 69.298C315.762 69.1441 315.79 68.9888 315.859 68.85C315.927 68.7113 316.033 68.5947 316.165 68.5136C316.297 68.4325 316.449 68.3902 316.604 68.3916C316.84 68.4293 317.053 68.555 317.2 68.7435C317.347 68.932 317.417 69.1693 317.396 69.4074Z" fill="#1A1B1C"/>
<path d="M309.09 73.2471L315.022 74.2019C315.022 74.2019 313.813 76.6702 311.477 76.5788C309.141 76.4874 309.09 73.2471 309.09 73.2471Z" fill="#F5F5F9"/>
<g style="mix-blend-mode:overlay" opacity="0.15">
<g style="mix-blend-mode:overlay" opacity="0.15">
<path d="M336.13 128.19C324.378 128.952 305.139 131.969 295.215 143.102C295.479 135.474 296.393 127.571 296.678 121.385C296.678 121.385 306.581 110.699 332.555 110.303C333.447 116.321 334.64 122.291 336.13 128.19Z" fill="white"/>
</g>
</g>
<g style="mix-blend-mode:overlay" opacity="0.15">
<g style="mix-blend-mode:overlay" opacity="0.15">
<path d="M318.454 67.2033C312.359 69.2348 308.083 67.894 306.387 67.122L307.047 66.1063C310.619 66.3569 314.204 65.8409 317.56 64.5928C317.916 65.442 318.215 66.3141 318.454 67.2033Z" fill="#1A1B1C"/>
</g>
</g>
<path d="M285.341 274.523C284.732 274.198 279.348 271.353 278.769 268.885C278.703 268.636 278.693 268.376 278.741 268.123C278.788 267.87 278.891 267.63 279.043 267.422C279.159 267.25 279.308 267.103 279.483 266.991C279.658 266.879 279.854 266.805 280.059 266.772C281.075 266.63 282.324 267.595 283.594 268.611C284.61 269.444 285.798 270.388 286.489 270.297C286.579 270.287 286.665 270.256 286.741 270.207C286.817 270.157 286.88 270.091 286.926 270.013C286.985 269.943 287.027 269.862 287.05 269.774C287.073 269.686 287.076 269.594 287.058 269.505C286.916 268.621 285.229 267.473 283.868 266.549C282.263 265.462 281.268 264.741 281.166 263.948C281.15 263.808 281.164 263.666 281.206 263.532C281.248 263.397 281.317 263.273 281.41 263.166C282.253 262.222 283.97 262.943 285.798 263.705C287.291 264.334 289.15 265.127 289.546 264.416C289.576 264.352 289.592 264.283 289.592 264.213C289.592 264.142 289.576 264.073 289.546 264.009C289.099 262.669 285.341 260.576 283.076 259.581L283.492 258.656C284.132 258.941 289.77 261.48 290.511 263.684C290.583 263.882 290.612 264.093 290.596 264.304C290.58 264.514 290.52 264.718 290.42 264.903C289.587 266.407 287.454 265.513 285.341 264.649C284.193 264.162 282.466 263.441 282.111 263.837C282.111 264.182 283.543 265.137 284.386 265.716C286.052 266.843 287.779 268.022 288.002 269.332C288.042 269.558 288.034 269.789 287.978 270.012C287.922 270.234 287.819 270.442 287.677 270.622C287.549 270.808 287.383 270.965 287.191 271.084C286.998 271.203 286.784 271.281 286.56 271.313C285.443 271.455 284.203 270.459 282.893 269.403C281.877 268.601 280.76 267.676 280.13 267.778C280.056 267.789 279.986 267.817 279.925 267.859C279.863 267.901 279.812 267.957 279.775 268.022C279.709 268.111 279.665 268.214 279.645 268.323C279.626 268.433 279.632 268.545 279.663 268.651C280.069 270.358 284.173 272.816 285.758 273.619L285.341 274.523Z" fill="#1A1B1C"/>
<path d="M341.971 244.73C341.057 244.628 336.435 244.059 335.653 242.505C335.553 242.321 335.505 242.113 335.514 241.904C335.523 241.695 335.589 241.492 335.704 241.317C336.395 240.108 338.314 240.25 339.868 240.372C340.379 240.416 340.892 240.416 341.402 240.372L341.27 240.159C340.61 239.224 339.178 238.94 337.908 238.686C336.638 238.432 335.805 238.279 335.491 237.589C335.413 237.382 335.386 237.16 335.412 236.94C335.439 236.721 335.518 236.511 335.643 236.329C336.445 234.907 338.294 235.374 339.929 235.791C341.321 236.146 342.763 236.512 343.424 235.791C343.473 235.746 343.511 235.69 343.535 235.628C343.434 235.141 340.773 234.359 337.37 234.054L337.461 233.038C338.964 233.18 343.911 233.749 344.49 235.273C344.562 235.485 344.57 235.715 344.512 235.931C344.454 236.148 344.334 236.343 344.165 236.492C343.088 237.609 341.28 237.152 339.675 236.746C338.071 236.339 336.923 236.096 336.527 236.796C336.405 237.01 336.405 237.111 336.415 237.132C336.516 237.355 337.431 237.538 338.101 237.66C339.482 237.934 341.209 238.269 342.103 239.539C342.235 239.742 342.662 240.341 342.357 240.87C342.052 241.398 341.077 241.418 339.787 241.327C338.497 241.235 336.963 241.113 336.588 241.764C336.506 241.896 336.537 241.946 336.588 241.987C336.943 242.688 339.736 243.399 342.113 243.663L341.971 244.73Z" fill="#1A1B1C"/>
<path d="M193.097 344.082C192.325 345.301 183.407 347.129 182.188 350.837C180.969 354.544 186.343 354.737 186.089 363.92C185.835 373.103 188.12 380.802 195.231 379.929C202.341 379.055 199.009 364.519 197.729 359.928C196.449 355.337 200.939 349.892 200.939 349.892" fill="#5551CE"/>
<path d="M206.353 305.371C202.005 307.636 197.211 309.485 194.834 308.754C193.941 308.469 193.122 307.991 192.437 307.352C191.726 306.697 191.116 305.941 190.629 305.107C188.76 301.986 188.109 298.286 188.8 294.716C188.871 294.431 188.942 294.147 189.034 293.862C190.446 289.484 200.542 282.78 205.215 278.504C205.715 280.008 206.122 281.541 206.434 283.095C206.936 285.827 207.198 288.597 207.216 291.374C207.271 296.054 206.983 300.733 206.353 305.371Z" fill="#1A1B1C"/>
<path d="M240.017 259.224C239.794 267.666 238.311 275.243 235.517 279.956C237.823 308.398 210.814 358.232 204.811 357.541C201.296 357.135 196.827 354.585 194.135 351.253C192.235 348.887 191.23 346.174 192.103 343.452C199.498 335.895 204.455 319.937 206.375 305.371C207.502 296.788 207.563 288.692 206.456 283.095C206.144 281.541 205.737 280.008 205.237 278.504C201.174 266.172 191.88 254.643 192.114 243.48C192.122 242.55 192.207 241.623 192.367 240.707L197.985 236.37L226.772 214.145C227.65 214.933 228.465 215.789 229.21 216.704C236.767 226.019 240.444 244.029 240.017 259.224Z" fill="#1A1B1C"/>
<path d="M228.967 74.8725C226.438 74.71 222.679 76.3149 221.613 78.5801C218.565 76.2641 216.666 71.7948 217.55 70.2609C218.433 68.7271 220.597 71.0329 220.597 71.0329C220.597 71.0329 215.274 56.9239 218.657 55.0244C222.039 53.1249 227.23 60.9158 228.307 66.1979C228.813 69.0605 229.034 71.9663 228.967 74.8725Z" fill="#FFBF9D"/>
<path d="M232.733 121.1C232.194 123.863 231.544 126.514 230.803 129.053C229.237 134.354 227.282 139.532 224.952 144.544C223.743 147.195 222.524 149.623 221.356 151.949C217.77 159.059 214.784 164.412 214.571 168.14C214.475 169.665 214.588 171.196 214.906 172.691C215.657 176.155 217.465 179.06 219.599 182.666C223.936 189.646 226.913 197.383 228.375 205.47C228.649 206.861 228.893 208.324 229.116 209.878C229.454 212.139 229.478 214.436 229.187 216.704C229.187 216.704 229.187 216.755 229.187 216.775C227.156 231.819 211.178 240.382 200.268 242.881C197.626 243.614 194.864 243.817 192.142 243.48C191.566 243.38 191.023 243.143 190.558 242.789C185.875 238.625 189.339 220.788 184.351 211.615C171.217 222.697 167.002 256.461 166.311 258.016C166.214 258.215 166.067 258.387 165.885 258.513C164.371 259.681 159.678 260.007 156.001 258.056H155.92C153.259 243.145 154.64 227.37 158.216 212.743C158.866 210.102 159.577 207.491 160.359 204.942C162.09 199.243 164.159 193.654 166.555 188.202C167.683 185.662 168.841 183.214 170.029 180.878C175.291 170.598 181.111 162.513 186.17 158.074C227.491 133.929 221.204 82.6427 221.376 79.697C221.4 79.323 221.497 78.9572 221.661 78.6203C222.727 76.3551 226.486 74.7502 229.015 74.9127C229.157 74.9017 229.299 74.9017 229.441 74.9127C235.282 92.8512 235.272 108.189 232.733 121.1Z" fill="#5551CE"/>
<path d="M193.119 158.033C190.986 160.872 187.816 162.749 184.302 163.254C183.452 163.356 182.592 163.356 181.742 163.254C180.984 163.166 180.235 163.007 179.507 162.777L178.492 157.272C178.483 157.195 178.451 157.123 178.399 157.066C178.347 157.009 178.278 156.969 178.203 156.954C178.127 156.938 178.049 156.946 177.978 156.978C177.908 157.009 177.849 157.062 177.811 157.129C177.614 157.436 177.307 157.654 176.953 157.739C176.599 157.825 176.226 157.77 175.912 157.586C173.829 156.713 173.565 152.294 177.202 153.168C176.602 147.886 182.23 141.994 188.375 140.521C189.659 140.989 190.867 141.642 191.961 142.462C193.131 143.268 194.107 144.324 194.819 145.553C195.53 146.783 195.959 148.156 196.075 149.572C196.13 152.655 195.082 155.656 193.119 158.033Z" fill="#FFBF9D"/>
<path d="M188.426 140.522C182.28 141.995 176.653 147.886 177.252 153.168C173.616 152.295 173.88 156.713 175.962 157.587C176.274 157.772 176.647 157.828 177 157.743C177.353 157.658 177.659 157.438 177.852 157.13C177.892 157.065 177.952 157.013 178.022 156.983C178.093 156.953 178.171 156.945 178.246 156.96C178.322 156.976 178.39 157.014 178.443 157.07C178.496 157.126 178.531 157.196 178.542 157.272L179.558 162.778C175.312 163.997 169.857 161.569 166.485 157.059C163.113 152.549 168.903 148.313 168.903 148.313C168.903 148.313 164.84 148.059 165.093 140.959C165.347 133.859 192.032 127.449 194.104 120.268C201.763 127.195 193.88 138.45 188.426 140.522Z" fill="#1A1B1C"/>
<path d="M194.052 164.199C191.757 167.754 186.353 167.317 186.17 165.977C185.777 164.931 185.136 163.996 184.301 163.254C187.815 162.749 190.985 160.871 193.118 158.033C194.144 159.821 195.728 161.609 194.052 164.199Z" fill="#FFBF9D"/>
<path d="M167.898 274.218C167.38 276.635 158.756 279.063 155.424 274.38C152.56 270.317 155.221 260.494 155.942 258.057C159.619 260.007 164.312 259.682 165.826 258.514C168.111 261.561 168.202 266.03 167.116 267.117C166.029 268.204 168.426 271.79 167.898 274.218Z" fill="#FFBF9D"/>
<g style="mix-blend-mode:overlay" opacity="0.15">
<g style="mix-blend-mode:overlay" opacity="0.15">
<path d="M235.529 279.957C235.529 279.957 235.762 255.578 227.402 247.056C233.985 249.666 237.174 254.42 239.988 259.245C239.805 267.666 238.322 275.243 235.529 279.957Z" fill="#1A1B1C"/>
</g>
</g>
<g style="mix-blend-mode:overlay" opacity="0.15">
<g style="mix-blend-mode:overlay" opacity="0.15">
<path d="M207.216 291.374C205.561 291.466 202.666 292.217 197.871 294.96C196.003 296.031 194.389 297.494 193.139 299.247C191.889 301 191.033 303.003 190.629 305.118C189.621 303.447 188.961 301.59 188.687 299.658C188.413 297.726 188.531 295.758 189.034 293.873C190.446 289.495 200.543 282.791 205.215 278.515C205.715 280.019 206.122 281.552 206.434 283.106C206.936 285.834 207.198 288.601 207.216 291.374Z" fill="#1A1B1C"/>
</g>
</g>
<path d="M192.437 307.352C186.668 314.239 184.982 331.629 177.922 329.699C169.796 327.495 176.307 317.337 177.343 311.222C178.379 305.107 174.915 297.946 177.343 295.63C179.771 293.314 183.864 295.691 188.801 294.696C188.11 298.266 188.761 301.967 190.629 305.087C191.116 305.928 191.725 306.692 192.437 307.352Z" fill="#5551CE"/>
<path d="M193.454 368.146L192.571 367.648C193.211 366.531 195.12 366.449 197.142 366.368C198.391 366.317 199.945 366.256 200.331 365.85C200.352 365.825 200.367 365.796 200.376 365.764C200.385 365.733 200.387 365.7 200.382 365.667C200.382 365.038 196.766 364.905 195.232 364.855C192.52 364.753 190.955 364.662 190.387 364.012C190.306 363.921 190.245 363.815 190.209 363.699C190.172 363.584 190.16 363.462 190.173 363.341C190.295 362.153 192.205 362.071 194.561 361.97C196.197 361.899 198.939 361.787 199 361.015C199.006 360.96 198.998 360.904 198.977 360.852C198.955 360.801 198.922 360.756 198.879 360.72C197.964 359.806 193.871 359.705 191.494 359.918L191.413 358.902C192.093 358.902 198.056 358.465 199.6 359.999C199.745 360.141 199.857 360.312 199.929 360.502C200.001 360.691 200.031 360.894 200.016 361.096C199.884 362.762 197.202 362.874 194.602 362.986C193.466 362.954 192.332 363.098 191.24 363.412C192.571 363.724 193.936 363.867 195.303 363.839C198.553 363.951 201.398 364.062 201.398 365.627C201.41 365.793 201.387 365.96 201.331 366.118C201.275 366.275 201.187 366.419 201.073 366.541C200.412 367.252 198.909 367.313 197.182 367.384C195.679 367.445 193.82 367.526 193.454 368.146Z" fill="#1A1B1C"/>
<path d="M187.36 320.557C185.237 320.557 181.723 318.343 180.961 317.845L181.52 316.992C183.49 318.282 186.741 319.907 187.767 319.481C187.837 319.452 187.898 319.405 187.943 319.344C187.988 319.283 188.015 319.211 188.021 319.135C188.214 318.119 185.989 317.104 184.384 316.413C182.779 315.722 181.581 315.143 181.398 314.331C181.365 314.178 181.368 314.019 181.407 313.868C181.446 313.716 181.519 313.576 181.621 313.457C182.485 312.441 184.496 313.101 186.639 313.833C187.817 314.229 190.011 314.981 190.194 314.473C190.213 314.433 190.222 314.39 190.222 314.346C190.222 314.302 190.213 314.259 190.194 314.219C189.625 313.071 185.867 311.517 183.622 310.806L183.937 309.79C184.567 309.993 190.164 311.822 191.098 313.721C191.18 313.876 191.23 314.046 191.244 314.221C191.257 314.395 191.236 314.571 191.18 314.737C190.662 316.179 188.559 315.468 186.345 314.737C184.953 314.27 182.85 313.559 182.434 314.056C182.515 314.381 183.907 315.011 184.831 315.428C186.974 316.443 189.402 317.459 189.046 319.288C189.007 319.526 188.906 319.75 188.755 319.939C188.604 320.127 188.407 320.274 188.183 320.364C187.926 320.488 187.645 320.554 187.36 320.557Z" fill="#1A1B1C"/>
<path d="M186.272 148.627C186.306 148.811 186.289 149.001 186.223 149.175C186.156 149.35 186.043 149.503 185.895 149.617C185.747 149.732 185.571 149.803 185.385 149.823C185.199 149.844 185.011 149.813 184.842 149.733C184.673 149.654 184.529 149.529 184.426 149.373C184.323 149.217 184.265 149.036 184.258 148.849C184.252 148.662 184.297 148.477 184.389 148.315C184.481 148.152 184.616 148.017 184.779 147.926C185.07 147.825 185.389 147.841 185.669 147.972C185.948 148.103 186.164 148.338 186.272 148.627Z" fill="#1A1B1C"/>
<path d="M190.71 145.133C190.744 145.317 190.727 145.507 190.66 145.681C190.594 145.856 190.48 146.009 190.332 146.123C190.185 146.237 190.008 146.309 189.822 146.329C189.636 146.35 189.449 146.318 189.279 146.239C189.11 146.16 188.966 146.035 188.863 145.879C188.76 145.723 188.702 145.542 188.696 145.355C188.689 145.168 188.735 144.983 188.826 144.82C188.918 144.658 189.053 144.523 189.216 144.432C189.508 144.33 189.827 144.347 190.106 144.478C190.385 144.609 190.602 144.844 190.71 145.133Z" fill="#1A1B1C"/>
<path d="M184.546 156.093C183.896 156.093 183.47 156.093 183.398 156.093L183.49 155.078C183.571 155.078 190.976 155.707 192.398 151.167L193.363 151.472C192.063 155.606 186.883 156.093 184.546 156.093Z" fill="#1A1B1C"/>
<g style="mix-blend-mode:overlay" opacity="0.15">
<g style="mix-blend-mode:overlay" opacity="0.15">
<path d="M181.742 163.254C180.984 163.166 180.235 163.007 179.507 162.777L178.492 157.272C178.483 157.195 178.451 157.123 178.399 157.066C178.347 157.009 178.278 156.969 178.203 156.954C178.127 156.938 178.049 156.946 177.978 156.978C177.908 157.009 177.849 157.062 177.811 157.129C177.614 157.436 177.307 157.654 176.953 157.739C176.599 157.825 176.226 157.77 175.912 157.586C173.829 156.713 173.565 152.294 177.202 153.168C176.602 147.886 182.23 141.994 188.375 140.521C189.659 140.989 190.867 141.642 191.961 142.462C189.482 143.01 182.453 144.808 180.462 148.17C178.674 151.299 180.675 159.537 181.742 163.254Z" fill="#1A1B1C"/>
</g>
</g>
<g style="mix-blend-mode:overlay" opacity="0.15">
<g style="mix-blend-mode:overlay" opacity="0.15">
<path d="M194.144 351.253C192.245 348.887 191.239 346.174 192.113 343.452C199.508 335.895 204.465 319.937 206.384 305.371C207.512 296.788 207.573 288.692 206.466 283.095C206.154 281.541 205.747 280.008 205.247 278.504C201.184 266.172 191.889 254.643 192.123 243.48C191.547 243.38 191.004 243.143 190.538 242.789C185.856 238.625 189.319 220.788 184.332 211.615C190.538 212.763 194.134 218.878 197.303 233.597C197.496 234.521 197.73 235.435 197.994 236.37C198.645 238.579 199.411 240.752 200.29 242.881C205.257 255.192 213.495 269.138 214.084 288.042C214.622 309.099 201.854 341.929 194.144 351.253Z" fill="#1A1B1C"/>
</g>
</g>
<g style="mix-blend-mode:overlay" opacity="0.15">
<g style="mix-blend-mode:overlay" opacity="0.15">
<path d="M229.116 209.879C228.892 208.325 228.649 206.831 228.374 205.47C226.806 206.157 225.109 206.503 223.397 206.486C220.44 206.567 217.555 205.569 215.279 203.68C213.003 201.791 211.492 199.138 211.027 196.217C210.562 193.296 211.175 190.305 212.752 187.803C214.329 185.3 216.762 183.457 219.598 182.616C217.465 179.01 215.657 176.104 214.905 172.641C209.398 174.797 204.921 178.974 202.39 184.32C199.858 189.665 199.463 195.775 201.285 201.402C203.106 207.029 207.007 211.749 212.191 214.597C217.375 217.444 223.45 218.206 229.177 216.725C229.177 216.725 229.177 216.725 229.177 216.654C229.466 214.403 229.445 212.124 229.116 209.879Z" fill="white"/>
</g>
</g>
<g style="mix-blend-mode:overlay" opacity="0.15">
<g style="mix-blend-mode:overlay" opacity="0.15">
<path d="M169.977 180.838C168.789 183.174 167.631 185.622 166.504 188.162C167.702 188.49 168.819 189.063 169.784 189.846C170.748 190.629 171.54 191.604 172.108 192.709C172.675 193.814 173.007 195.025 173.082 196.265C173.156 197.506 172.972 198.748 172.541 199.913C172.109 201.078 171.44 202.141 170.576 203.034C169.712 203.926 168.672 204.63 167.522 205.099C166.371 205.568 165.136 205.793 163.894 205.759C162.652 205.725 161.43 205.433 160.307 204.902C159.525 207.451 158.814 210.062 158.164 212.703C160.078 213.431 162.109 213.803 164.157 213.8C168.153 213.801 172.021 212.394 175.082 209.827C178.144 207.259 180.202 203.695 180.897 199.761C181.592 195.826 180.878 191.773 178.881 188.312C176.884 184.851 173.732 182.205 169.977 180.838Z" fill="white"/>
</g>
</g>
<g style="mix-blend-mode:overlay" opacity="0.15">
<g style="mix-blend-mode:overlay" opacity="0.15">
<path d="M230.805 129.053C231.546 126.514 232.196 123.863 232.734 121.1C232.186 121.049 231.627 121.019 231.069 121.019C227.45 121.015 223.925 122.167 221.007 124.306C218.088 126.446 215.93 129.462 214.846 132.915C213.762 136.367 213.809 140.076 214.981 143.5C216.152 146.924 218.386 149.884 221.358 151.949C222.526 149.663 223.745 147.195 224.954 144.544C223.655 143.333 222.746 141.764 222.342 140.035C221.938 138.307 222.058 136.497 222.685 134.837C223.312 133.176 224.419 131.74 225.865 130.71C227.311 129.68 229.03 129.103 230.805 129.053Z" fill="white"/>
</g>
</g>
<path d="M97.8095 172.183C95.0058 171.499 92.2821 170.522 89.6833 169.268C91.7148 176.734 94.6098 187.206 95.7779 190.101C97.3727 194.164 99.3229 196.49 99.5159 198.471C99.5618 198.764 99.5618 199.062 99.5159 199.355C99.0487 201.549 82.4713 218.99 72.0901 217.486C61.7089 215.983 58.5397 211.595 58.5397 211.595L51.084 173.666C50.6951 175.413 50.5009 177.198 50.505 178.989C50.1393 179.11 49.7736 179.243 49.4181 179.385C43.933 181.569 39.4229 186.079 37.0156 188.842C35.6824 185.844 35.0468 182.583 35.1567 179.303C35.5224 161.182 48.6563 146.992 57.2599 142.147C58.3864 141.48 59.5907 140.955 60.8455 140.582C60.9938 141.376 61.0652 142.182 61.0589 142.99C61.0589 143.305 61.323 143.65 61.8308 144.005C63.5373 145.113 67.6207 146.037 69.7742 145.021C70.3737 144.735 70.9253 144.358 71.4096 143.904C71.7446 143.593 71.9766 143.187 72.0746 142.74C72.1726 142.294 72.132 141.828 71.9581 141.405C71.8667 141.1 71.6737 140.735 71.5213 140.247C72.6829 140.247 73.8432 140.322 74.9952 140.471C81.6584 141.41 87.9514 144.106 93.2283 148.282C96.0489 150.618 99.1633 152.575 102.492 154.102C102.861 158.415 102.196 162.754 100.552 166.759C99.7846 168.637 98.8674 170.451 97.8095 172.183Z" fill="#5551CE"/>
<path d="M125.62 137.149C124.747 142.959 125.62 159.496 116.032 167.826C112.558 170.752 108.225 172.467 103.69 172.711C101.714 172.834 99.7309 172.656 97.8086 172.183C98.8446 170.433 99.738 168.602 100.48 166.708C102.124 162.704 102.789 158.365 102.42 154.052L102.562 154.113C104.976 155.184 107.603 155.688 110.242 155.586C114.975 155.382 118.429 140.552 117.352 136.479C116.275 132.406 113.289 129.419 114.813 127.682C116.336 125.945 117.931 128.607 118.967 126.758C120.003 124.909 117.697 116.712 122.086 116.6C126.474 116.488 127.703 131.38 125.62 137.149Z" fill="#FFBF9D"/>
<path d="M76.4766 122.41C75.5659 122.806 74.5574 122.92 73.5816 122.735C73.0446 122.629 72.5421 122.392 72.1189 122.045C68.1676 123.65 66.1157 121.344 66.1157 121.344C66.1157 121.344 65.0999 124.513 60.5594 123.65C60.1125 126.981 56.5675 128.048 56.5675 128.048C53.7233 126.981 53.5201 129.165 54.0991 131.38C54.6781 133.594 56.6589 132.284 56.8112 132.822C56.9636 133.36 57.4309 136.357 57.4309 136.357C57.4309 136.357 53.8147 137.18 52.0473 135.036C50.2798 132.893 51.8441 130.222 51.8441 130.222C51.8441 130.222 49 130.313 47.974 125.214C46.9481 120.115 50.2697 118.672 50.2697 118.672C50.2697 118.672 47.8521 112.212 51.966 109.825C56.0799 107.438 60.2649 110.607 60.2649 110.607C60.2649 110.607 61.626 107.489 66.1868 107.072C70.7476 106.656 72.2002 111.308 72.2002 111.308C80.4279 109.673 79.2699 121.273 76.4766 122.41Z" fill="#1A1B1C"/>
<path d="M75.8901 132.792C75.6869 134.651 73.8585 136.794 71.248 138.185C69.5998 139.099 67.7552 139.6 65.8714 139.646C63.9877 139.692 62.1208 139.281 60.43 138.45C59.8822 138.175 59.3559 137.859 58.8556 137.505C58.3576 137.146 57.8826 136.756 57.4335 136.337C57.4335 136.337 56.9866 133.289 56.8139 132.792C56.6412 132.294 54.7214 133.574 54.1018 131.349C53.4822 129.125 53.7361 126.941 56.5701 128.018C56.5701 128.018 60.1151 126.941 60.5621 123.619C65.0823 124.473 66.1184 121.313 66.1184 121.313C66.1184 121.313 68.1499 123.619 72.1216 122.004C72.5419 122.356 73.0456 122.594 73.5843 122.695C73.9978 123.55 74.3607 124.428 74.6711 125.326C75.606 127.699 76.0216 130.245 75.8901 132.792Z" fill="#FFBF9D"/>
<path d="M71.3969 143.853C70.9126 144.308 70.361 144.685 69.7615 144.971C67.7299 145.986 64.0427 145.214 62.1838 144.199L61.8182 143.985C61.3103 143.65 61.0157 143.305 61.0462 142.97C61.0525 142.162 60.9811 141.356 60.8329 140.562C60.7211 139.811 60.5789 139.039 60.457 138.429C62.1478 139.261 64.0147 139.671 65.8984 139.625C67.7822 139.579 69.6268 139.078 71.275 138.165C71.2396 138.673 71.2806 139.183 71.3969 139.679C71.4277 139.858 71.4718 140.034 71.5289 140.207C71.6813 140.694 71.8743 141.06 71.9657 141.365C72.1349 141.788 72.1711 142.253 72.0695 142.698C71.9679 143.142 71.7333 143.545 71.3969 143.853Z" fill="#FFBF9D"/>
<path d="M116.957 298.881C115.616 313.376 113.27 325.169 111.015 326.256C110.094 326.67 109.119 326.95 108.12 327.089C104.27 327.698 99.1707 327.089 96.5094 325.636C96.1437 325.457 95.8024 325.231 95.4936 324.966C95.1232 324.679 94.8559 324.28 94.7318 323.828C94.0512 320.781 96.164 308.419 96.2859 307.748L96.2046 307.921C96.2046 308.002 96.1234 308.104 96.0624 308.226L95.8694 308.652L95.7475 308.906C94.7318 311.111 92.2431 315.641 89.917 316.017C88.7692 316.21 86.3212 315.549 83.6903 314.351C83.1317 314.107 82.573 313.833 82.0143 313.538C78.6623 311.761 75.4017 309.252 74.4671 306.601C74.2902 306.116 74.2007 305.603 74.203 305.087C74.2741 299.358 90.7499 276.361 89.8865 265.97C89.0231 255.578 77.4129 244.496 70.1399 238.259C62.867 232.023 58.5398 223.886 58.5195 211.595C58.5195 211.595 61.6583 215.984 72.0699 217.487C82.4816 218.99 99.059 201.549 99.4957 199.355C99.5416 199.063 99.5416 198.764 99.4957 198.472C99.8309 199.284 108.902 221.55 114.123 242.15C115.047 245.807 115.86 249.402 116.479 252.826C118.704 264.73 118.399 283.37 116.957 298.881Z" fill="#1A1B1C"/>
<g style="mix-blend-mode:overlay" opacity="0.15">
<g style="mix-blend-mode:overlay" opacity="0.15">
<path d="M93.0639 261.256C92.109 268.041 82.703 299.601 82.0224 313.558C78.6704 311.78 75.4097 309.271 74.4752 306.62C74.2983 306.135 74.2088 305.623 74.2111 305.107C74.2822 299.378 90.7581 276.381 89.8947 265.989C89.0312 255.598 77.421 244.516 70.1481 238.279C62.8751 232.042 58.548 223.906 58.5276 211.615L51.082 173.666C53.0263 173.689 54.9175 174.303 56.5049 175.426C58.0923 176.549 59.3007 178.128 59.97 179.954C62.7431 186.556 62.9056 199.253 68.8885 203.316C74.8714 207.379 68.8885 209.34 72.1187 217.537C75.3488 225.734 84.6736 234.805 84.4501 241.083C84.2267 247.36 94.2218 253.049 93.0639 261.256Z" fill="#1A1B1C"/>
</g>
</g>
<path d="M99.1274 198.725L99.0664 198.471H99.6149L99.1274 198.725ZM99.6149 198.471L100.072 198.258L99.6149 198.471Z" fill="#FFBF9D"/>
<path d="M96.2125 307.921C96.2125 308.002 96.1313 308.104 96.0703 308.226L96.2125 307.921Z" fill="#1A1B1C"/>
<g style="mix-blend-mode:overlay" opacity="0.15">
<g style="mix-blend-mode:overlay" opacity="0.15">
<path d="M116.955 298.881C109.042 308.459 99.687 318.566 96.5077 325.636C96.1008 325.479 95.7325 325.236 95.4276 324.924C95.1226 324.612 94.8882 324.238 94.7402 323.828C94.0596 320.781 96.1724 308.419 96.2943 307.748C101.922 296.981 118.58 261.48 108.88 246.132C100.368 232.642 97.9907 229.585 97.5437 229.036C98.4986 229.971 106.604 237.965 114.202 242.15C115.127 245.807 115.939 249.402 116.559 252.826C118.702 264.73 118.398 283.37 116.955 298.881Z" fill="#1A1B1C"/>
</g>
</g>
<path d="M82.8757 319.582C83.5258 323.777 84.0439 339.715 79.3307 339.278C74.6175 338.841 72.2203 334.128 71.2045 326.855C70.1888 319.582 67.5681 318.455 67.7001 314.778C67.8119 311.73 72.4641 308.327 74.455 306.651C75.5419 309.699 79.8081 312.644 83.6782 314.402C82.9621 316.029 82.6854 317.815 82.8757 319.582Z" fill="#5551CE"/>
<path d="M114.121 350.878C109.631 352.382 105.517 349.05 101.698 342.752C97.8785 336.454 94.9835 336.525 93.5716 333.112C92.7082 330.929 94.2115 327.485 95.4609 324.986C95.7697 325.252 96.1111 325.477 96.4767 325.657C99.138 327.069 104.237 327.688 108.087 327.109C108.164 328.639 108.61 330.127 109.387 331.447C111.703 335.002 118.621 349.365 114.121 350.878Z" fill="#5551CE"/>
<path d="M82.2176 329.141C81.5379 329.124 80.8597 329.07 80.186 328.978C79.516 328.858 78.8332 328.823 78.1545 328.877L77.9209 327.861C78.6993 327.771 79.4868 327.799 80.2572 327.942C81.2221 328.054 82.8575 328.247 83.1521 327.881C83.2334 327.79 83.1521 327.536 83.1521 327.434C82.8575 326.52 81.4253 326.307 80.1556 326.124C79.0382 325.951 78.0631 325.809 77.6568 325.169C77.5621 325.01 77.5047 324.831 77.4889 324.646C77.473 324.462 77.4992 324.276 77.5654 324.103C78.0022 322.68 79.8305 322.752 81.4456 322.813C82.309 322.813 83.6092 322.894 83.66 322.518C83.66 322.518 83.66 322.406 83.5787 322.305C82.949 321.523 80.0743 321.025 78.4084 320.893L78.4897 319.877C78.9773 319.877 83.2638 320.283 84.371 321.655C84.492 321.792 84.5812 321.954 84.6321 322.129C84.6831 322.305 84.6945 322.49 84.6656 322.67C84.4929 323.96 82.9286 323.899 81.405 323.849C80.1556 323.798 78.7437 323.747 78.5304 324.428C78.5055 324.497 78.5055 324.572 78.5304 324.641C78.6827 324.895 79.6274 325.037 80.3181 325.139C81.8011 325.352 83.6397 325.626 84.1272 327.17C84.2241 327.398 84.2591 327.648 84.2288 327.894C84.1985 328.14 84.1039 328.374 83.9546 328.572C83.7215 328.784 83.4462 328.944 83.1469 329.042C82.8475 329.14 82.5309 329.174 82.2176 329.141Z" fill="#1A1B1C"/>
<path d="M109.061 340.689L108.168 340.212C108.482 339.603 109.437 339.328 110.646 338.973C111.509 338.719 112.82 338.343 113.003 337.957C113.02 337.926 113.028 337.891 113.028 337.855C113.028 337.82 113.02 337.785 113.003 337.754C112.749 337.216 111.215 337.561 110.087 337.754C108.543 338.089 106.949 338.434 106.674 337.195C106.4 335.956 107.985 335.499 109.519 335.052C110.183 334.916 110.817 334.657 111.388 334.29C110.646 333.427 107.518 333.874 105.527 334.453L105.242 333.437C106.146 333.173 110.768 331.934 112.129 333.61C112.244 333.737 112.325 333.891 112.364 334.058C112.403 334.225 112.399 334.399 112.353 334.564C112.129 335.296 111.103 335.58 109.803 335.986C109.265 336.139 107.599 336.637 107.67 336.931C107.741 337.226 109.173 336.87 109.864 336.718C111.489 336.362 113.328 335.966 113.927 337.226C114.001 337.385 114.04 337.558 114.04 337.734C114.04 337.909 114.001 338.082 113.927 338.241C113.551 339.085 112.281 339.45 110.88 339.846C110.23 340.021 109.615 340.306 109.061 340.689Z" fill="#1A1B1C"/>
<path d="M80.1133 168.395L70.595 171.019C69.9514 171.196 69.5735 171.862 69.7509 172.505L74.7686 190.709C74.946 191.353 75.6115 191.731 76.2551 191.554L85.7735 188.93C86.417 188.753 86.795 188.087 86.6176 187.443L81.5999 169.239C81.4225 168.596 80.7569 168.218 80.1133 168.395Z" fill="#1A1B1C"/>
<path d="M73.6115 192.905C64.9165 205.816 43.4431 203.063 36.9727 188.842C39.5426 185.896 44.4995 180.96 50.4621 178.989C50.372 180.96 51.0122 182.895 52.26 184.424C59.3704 192.042 69.3961 188.06 70.6658 186.384C71.9355 184.708 70.9604 182.118 71.9355 181.935C72.9106 181.752 72.2199 182.951 73.2052 183.327C74.1905 183.702 75.2367 179.172 78.406 179.264C81.5752 179.355 80.4273 192.103 73.6115 192.905Z" fill="#FFBF9D"/>
<g style="mix-blend-mode:overlay" opacity="0.15">
<g style="mix-blend-mode:overlay" opacity="0.15">
<path d="M116.032 167.826C112.558 170.752 108.226 172.467 103.691 172.712C101.715 172.835 99.7317 172.657 97.8094 172.184C95.0057 171.5 92.282 170.523 89.6832 169.269L87.1133 158.847C91.1238 162.139 95.6192 164.791 100.44 166.709C105.316 168.537 110.821 169.512 116.032 167.826Z" fill="#1A1B1C"/>
</g>
</g>
<path d="M66.9682 129.033C66.93 129.191 66.8481 129.335 66.7319 129.448C66.6157 129.562 66.47 129.64 66.3113 129.674C66.1527 129.708 65.9876 129.697 65.835 129.642C65.6824 129.587 65.5484 129.49 65.4485 129.362C65.3486 129.234 65.2868 129.08 65.2702 128.919C65.2535 128.757 65.2827 128.594 65.3544 128.449C65.4261 128.303 65.5374 128.181 65.6755 128.096C65.8136 128.01 65.973 127.966 66.1353 127.967C66.3809 128.011 66.6016 128.144 66.7552 128.341C66.9088 128.538 66.9846 128.784 66.9682 129.033Z" fill="#1A1B1C"/>
<path d="M72.2807 127.967C72.2425 128.125 72.1606 128.269 72.0444 128.382C71.9282 128.495 71.7825 128.573 71.6238 128.608C71.4652 128.642 71.3001 128.631 71.1475 128.576C70.9949 128.52 70.8609 128.423 70.761 128.295C70.6611 128.167 70.5993 128.014 70.5827 127.852C70.566 127.691 70.5952 127.528 70.6669 127.382C70.7386 127.237 70.8499 127.114 70.988 127.029C71.1261 126.944 71.2855 126.899 71.4478 126.9C71.6934 126.945 71.9141 127.078 72.0677 127.275C72.2213 127.472 72.2971 127.718 72.2807 127.967Z" fill="#1A1B1C"/>
<path d="M63.3945 132.649L71.4496 133.279C71.4496 133.279 69.6517 136.438 66.6247 136.194C64.4611 136.022 63.3945 132.649 63.3945 132.649Z" fill="white"/>
<g style="mix-blend-mode:overlay" opacity="0.15">
<g style="mix-blend-mode:overlay" opacity="0.15">
<path d="M74.6711 125.326C66.6161 121.73 59.201 127.154 58.3477 129.328C57.5656 131.309 58.4391 135.819 58.8556 137.505C58.3576 137.146 57.8826 136.756 57.4335 136.337C57.4335 136.337 56.9866 133.289 56.8139 132.792C56.6412 132.294 54.7214 133.574 54.1018 131.349C53.4822 129.125 53.7361 126.941 56.5701 128.018C56.5701 128.018 60.1151 126.941 60.5621 123.619C65.0823 124.473 66.1184 121.313 66.1184 121.313C66.1184 121.313 68.1499 123.619 72.1216 122.004C72.5419 122.356 73.0456 122.594 73.5843 122.695C73.9978 123.55 74.3607 124.428 74.6711 125.326Z" fill="#1A1B1C"/>
</g>
</g>
<g style="mix-blend-mode:overlay" opacity="0.15">
<g style="mix-blend-mode:overlay" opacity="0.15">
<path d="M71.4 139.679C68.8403 140.471 64.6654 142.005 62.2581 144.209L61.8924 143.996C61.3845 143.661 61.0899 143.316 61.1204 142.98C61.1267 142.173 61.0553 141.367 60.9071 140.573C60.7953 139.821 60.6531 139.049 60.5312 138.44C62.222 139.272 64.0889 139.682 65.9727 139.636C67.8564 139.59 69.701 139.089 71.3492 138.176C71.2914 138.677 71.3085 139.183 71.4 139.679Z" fill="#1A1B1C"/>
</g>
</g>
<g style="mix-blend-mode:overlay" opacity="0.15">
<g style="mix-blend-mode:overlay" opacity="0.15">
<path d="M70.3222 148.871C67.719 149.162 65.0877 148.679 62.7572 147.483C60.4267 146.287 58.5003 144.431 57.2188 142.147C58.3453 141.48 59.5496 140.955 60.8044 140.582C60.9527 141.376 61.0241 142.182 61.0177 142.99C61.0177 143.305 61.2818 143.65 61.7897 144.005C63.4962 145.113 67.5796 146.037 69.7331 145.021C70.3325 144.735 70.8842 144.358 71.3684 143.904C71.7034 143.593 71.9355 143.187 72.0335 142.74C72.1315 142.294 72.0908 141.828 71.917 141.405C71.8255 141.1 71.6325 140.735 71.4802 140.247C72.6417 140.247 73.8021 140.322 74.9541 140.471C75.9191 144.28 75.655 148.414 70.3222 148.871Z" fill="#1A1B1C"/>
</g>
</g>
<g opacity="0.24">
<path opacity="0.24" d="M102.552 60.8653V88.3926C102.553 88.4949 102.534 88.5964 102.496 88.6912C102.458 88.786 102.401 88.8723 102.33 88.9451C102.258 89.0179 102.172 89.0756 102.078 89.1151C101.984 89.1545 101.882 89.1748 101.78 89.1748H71.1241C71.0214 89.1748 70.9197 89.195 70.8248 89.2343C70.7299 89.2736 70.6437 89.3312 70.5711 89.4039C70.4984 89.4765 70.4408 89.5627 70.4015 89.6576C70.3622 89.7525 70.342 89.8542 70.342 89.9569V96.3563C70.3393 96.5214 70.2844 96.6815 70.1852 96.8135C70.0859 96.9455 69.9475 97.0427 69.7896 97.0912C69.6317 97.1397 69.4626 97.137 69.3063 97.0834C69.1501 97.0299 69.0148 96.9282 68.9199 96.7931L63.9426 89.51C63.8702 89.4074 63.7744 89.3235 63.6631 89.2652C63.5518 89.2069 63.4283 89.1759 63.3027 89.1748H56.1923C55.9849 89.1748 55.7859 89.0924 55.6392 88.9457C55.4926 88.799 55.4102 88.6001 55.4102 88.3926V60.8653C55.4102 60.6578 55.4926 60.4589 55.6392 60.3122C55.7859 60.1655 55.9849 60.0831 56.1923 60.0831H101.739C101.845 60.0775 101.951 60.0937 102.05 60.1306C102.149 60.1676 102.239 60.2245 102.316 60.2978C102.392 60.3711 102.452 60.4594 102.493 60.557C102.533 60.6546 102.554 60.7595 102.552 60.8653Z" fill="#5551CE"/>
</g>
<path d="M74.2744 74.883C74.2764 75.0667 74.2237 75.2468 74.1229 75.4003C74.0221 75.5539 73.8778 75.6739 73.7085 75.7451C73.5392 75.8164 73.3525 75.8355 73.1723 75.8002C72.992 75.7648 72.8264 75.6766 72.6965 75.5467C72.5666 75.4168 72.4784 75.2512 72.4431 75.071C72.4077 74.8907 72.4269 74.704 72.4981 74.5347C72.5693 74.3654 72.6894 74.2211 72.8429 74.1204C72.9965 74.0196 73.1766 73.9668 73.3602 73.9688C73.6027 73.9688 73.8352 74.0651 74.0067 74.2366C74.1781 74.408 74.2744 74.6405 74.2744 74.883Z" fill="#1A1B1C"/>
<path d="M79.919 74.883C79.921 75.0667 79.8682 75.2468 79.7674 75.4003C79.6666 75.5539 79.5224 75.6739 79.3531 75.7451C79.1838 75.8164 78.9971 75.8355 78.8168 75.8002C78.6366 75.7648 78.4709 75.6766 78.3411 75.5467C78.2112 75.4168 78.1229 75.2512 78.0876 75.071C78.0522 74.8907 78.0714 74.704 78.1426 74.5347C78.2138 74.3654 78.3339 74.2211 78.4874 74.1204C78.641 74.0196 78.8211 73.9668 79.0048 73.9688C79.2472 73.9688 79.4798 74.0651 79.6512 74.2366C79.8226 74.408 79.919 74.6405 79.919 74.883Z" fill="#1A1B1C"/>
<path d="M85.6182 74.8829C85.6202 75.0662 85.5677 75.2459 85.4674 75.3992C85.367 75.5526 85.2234 75.6726 85.0547 75.7441C84.8859 75.8157 84.6998 75.8354 84.5198 75.8009C84.3398 75.7664 84.1742 75.6792 84.0439 75.5503C83.9136 75.4215 83.8245 75.2568 83.7881 75.0772C83.7516 74.8976 83.7693 74.7113 83.8389 74.5418C83.9086 74.3723 84.027 74.2273 84.1792 74.1253C84.3315 74.0232 84.5106 73.9688 84.6938 73.9688C84.9372 73.9687 85.1708 74.0647 85.3439 74.2359C85.5169 74.407 85.6155 74.6396 85.6182 74.8829Z" fill="#1A1B1C"/>
<g opacity="0.24">
<path opacity="0.24" d="M333.711 0.771984V28.3095C333.714 28.5162 333.797 28.7136 333.943 28.8597C334.089 29.0058 334.286 29.089 334.493 29.0917H365.149C365.354 29.0917 365.55 29.173 365.695 29.3178C365.84 29.4626 365.921 29.6589 365.921 29.8637V36.263C365.922 36.429 365.975 36.5905 366.073 36.7242C366.172 36.8578 366.31 36.9567 366.469 37.0064C366.627 37.0562 366.797 37.0543 366.954 37.001C367.112 36.9477 367.248 36.8458 367.343 36.71L372.331 29.4269C372.402 29.3231 372.497 29.2382 372.609 29.1798C372.72 29.1214 372.845 29.0911 372.971 29.0917H380.081C380.288 29.089 380.485 29.0058 380.631 28.8597C380.777 28.7136 380.86 28.5162 380.863 28.3095V0.771984C380.86 0.566312 380.777 0.369973 380.63 0.225482C380.484 0.0809913 380.287 -1.7344e-05 380.081 2.78534e-09H334.483C334.279 0.00263162 334.084 0.0848107 333.94 0.22902C333.796 0.373229 333.714 0.568059 333.711 0.771984Z" fill="#5551CE"/>
</g>
<path d="M352.544 14.8912C352.544 15.074 352.49 15.2527 352.388 15.4047C352.287 15.5567 352.142 15.6752 351.973 15.7451C351.804 15.8151 351.619 15.8334 351.439 15.7977C351.26 15.7621 351.095 15.674 350.966 15.5448C350.837 15.4155 350.749 15.2508 350.713 15.0715C350.677 14.8922 350.696 14.7063 350.766 14.5374C350.836 14.3685 350.954 14.2242 351.106 14.1226C351.258 14.021 351.437 13.9668 351.62 13.9668C351.741 13.9668 351.861 13.9907 351.973 14.0372C352.086 14.0836 352.187 14.1517 352.273 14.2375C352.359 14.3234 352.427 14.4253 352.474 14.5374C352.52 14.6496 352.544 14.7698 352.544 14.8912Z" fill="#1A1B1C"/>
<path d="M358.192 14.8912C358.192 15.074 358.138 15.2527 358.037 15.4047C357.935 15.5567 357.791 15.6752 357.622 15.7451C357.453 15.8151 357.267 15.8334 357.088 15.7977C356.908 15.7621 356.744 15.674 356.614 15.5448C356.485 15.4155 356.397 15.2508 356.362 15.0715C356.326 14.8922 356.344 14.7063 356.414 14.5374C356.484 14.3685 356.603 14.2242 356.755 14.1226C356.907 14.021 357.085 13.9668 357.268 13.9668C357.513 13.9668 357.748 14.0642 357.922 14.2375C358.095 14.4109 358.192 14.646 358.192 14.8912Z" fill="#1A1B1C"/>
<path d="M363.841 14.8912C363.841 15.074 363.787 15.2527 363.685 15.4047C363.584 15.5567 363.439 15.6752 363.27 15.7451C363.101 15.8151 362.916 15.8334 362.736 15.7977C362.557 15.7621 362.392 15.674 362.263 15.5448C362.134 15.4155 362.046 15.2508 362.01 15.0715C361.974 14.8922 361.993 14.7063 362.063 14.5374C362.133 14.3685 362.251 14.2242 362.403 14.1226C362.555 14.021 362.734 13.9668 362.917 13.9668C363.162 13.9668 363.397 14.0642 363.57 14.2375C363.744 14.4109 363.841 14.646 363.841 14.8912Z" fill="#1A1B1C"/>
<path d="M147.715 79.3622V106.89C147.715 107.097 147.797 107.296 147.944 107.443C148.091 107.589 148.29 107.672 148.497 107.672H167.715C167.818 107.67 167.921 107.69 168.016 107.729C168.112 107.767 168.199 107.825 168.271 107.898C168.344 107.971 168.402 108.057 168.441 108.153C168.48 108.248 168.499 108.351 168.498 108.454V114.853C168.5 115.018 168.555 115.178 168.654 115.31C168.754 115.442 168.892 115.54 169.05 115.588C169.208 115.637 169.377 115.634 169.533 115.58C169.689 115.527 169.825 115.425 169.92 115.29L174.897 108.007C174.971 107.904 175.069 107.82 175.182 107.762C175.295 107.704 175.42 107.673 175.547 107.672H194.044C194.146 107.672 194.248 107.651 194.342 107.612C194.436 107.573 194.522 107.515 194.594 107.442C194.665 107.369 194.722 107.283 194.76 107.188C194.799 107.093 194.817 106.992 194.816 106.89V79.3622C194.817 79.26 194.799 79.1585 194.76 79.0637C194.722 78.9688 194.665 78.8825 194.594 78.8098C194.522 78.737 194.436 78.6792 194.342 78.6398C194.248 78.6004 194.146 78.5801 194.044 78.5801H148.497C148.29 78.5801 148.091 78.6625 147.944 78.8092C147.797 78.9558 147.715 79.1548 147.715 79.3622Z" fill="#1A1B1C"/>
<path d="M174.074 97.1073V95.4719C174.074 95.3524 174.027 95.2376 173.943 95.1522C173.86 95.0668 173.746 95.0174 173.627 95.0148H162.453C162.394 95.0161 162.334 95.0056 162.279 94.9837C162.224 94.9619 162.173 94.9292 162.131 94.8875C162.088 94.8459 162.054 94.7962 162.031 94.7413C162.008 94.6864 161.996 94.6274 161.996 94.5678V90.9212C161.999 90.8018 162.048 90.6881 162.134 90.6046C162.219 90.521 162.334 90.4742 162.453 90.4743H173.627C173.745 90.4743 173.859 90.4272 173.943 90.3434C174.027 90.2596 174.074 90.1459 174.074 90.0273V88.3919C174.073 88.3081 174.096 88.2258 174.14 88.1544C174.184 88.083 174.248 88.0255 174.323 87.9884C174.398 87.9514 174.482 87.9362 174.566 87.9447C174.649 87.9532 174.729 87.985 174.795 88.0364L180.412 92.4144C180.467 92.4561 180.511 92.5099 180.542 92.5716C180.572 92.6332 180.588 92.7011 180.588 92.7699C180.588 92.8387 180.572 92.9066 180.542 92.9683C180.511 93.03 180.467 93.0837 180.412 93.1254L174.795 97.5034C174.726 97.5577 174.643 97.5905 174.555 97.5977C174.468 97.6049 174.38 97.5863 174.303 97.544C174.226 97.5018 174.163 97.4378 174.123 97.3602C174.082 97.2825 174.065 97.1946 174.074 97.1073Z" fill="white"/>
</g>
<defs>
<clipPath id="clip0_1040_3580">
<rect width="380.813" height="380" fill="white"/>
</clipPath>
</defs>
</svg>
