<svg xmlns="http://www.w3.org/2000/svg" width="30.917" height="35" viewBox="0 0 30.917 35"><defs><style>.a{fill:#ecb53e;}</style></defs><path class="a" d="M30.717,25.65H43.55a.583.583,0,1,0,0-1.167H30.717a.583.583,0,1,0,0,1.167Z" transform="translate(-23.716 -18.067)"/><path class="a" d="M30.717,36.95H43.55a.583.583,0,1,0,0-1.167H30.717a.583.583,0,1,0,0,1.167Z" transform="translate(-23.716 -25.867)"/><path class="a" d="M30.717,48.25H43.55a.583.583,0,1,0,0-1.167H30.717a.583.583,0,1,0,0,1.167Z" transform="translate(-23.716 -33.667)"/><path class="a" d="M30.717,59.55H43.55a.583.583,0,1,0,0-1.167H30.717a.583.583,0,1,0,0,1.167Z" transform="translate(-23.716 -41.467)"/><path class="a" d="M30.717,70.85h4.667a.583.583,0,0,0,0-1.167H30.717a.583.583,0,1,0,0,1.167Z" transform="translate(-23.716 -49.267)"/><path class="a" d="M39.466,17.549a1.752,1.752,0,0,0-2.395.625l-1.407,2.4V6.1a.583.583,0,0,0-.583-.583H30.656a22.873,22.873,0,0,0-1.823-1.725.582.582,0,0,0-.169-.025H11.748a.583.583,0,0,0-.583.583V6.174a2.333,2.333,0,0,0,0,4.519v1.314a2.333,2.333,0,0,0,0,4.519v1.314a2.333,2.333,0,0,0,0,4.519v.731a2.333,2.333,0,0,0,0,4.519v3.574a.583.583,0,0,0,.583.583h.583v1.75a.583.583,0,0,0,.583.583H27.738l-.4.682a.579.579,0,0,0-.072.2s0,.006,0,.01V35L26.8,38.1a.583.583,0,0,0,.935.548l2.481-1.926c.159-.123.237-.2.224-.3L31.795,34.1h3.287a.583.583,0,0,0,.583-.583V27.5l4.426-7.553a1.752,1.752,0,0,0-.625-2.395Zm-1.032.945a.583.583,0,0,1,.651.859l-.295.5-1.006-.59.3-.5a.579.579,0,0,1,.356-.27ZM29.646,35.459l-1.006-.59,7.668-13.085,1.006.59Zm-.4-29.7L31.34,7.85H29.248ZM36.9,20.777l.295-.5,1.007.59-.295.5ZM34.5,6.683v15.75a.587.587,0,0,0,.011.113l-1.178,2.01V8.433a.582.582,0,0,0-.17-.412h0L31.823,6.683ZM12.331,4.933h15.75v3.5a.583.583,0,0,0,.583.583h3.5v17.53L29.789,30.6H12.331V27.61a2.331,2.331,0,0,0,1.676-1.677.584.584,0,0,0-1.13-.291,1.163,1.163,0,0,1-.546.718v-4a2.331,2.331,0,0,0,1.676-1.677.584.584,0,0,0-1.13-.291,1.163,1.163,0,0,1-.546.718V16.526a2.331,2.331,0,0,0,1.676-1.677.584.584,0,0,0-1.13-.291,1.163,1.163,0,0,1-.546.718V10.693a2.331,2.331,0,0,0,1.676-1.677.584.584,0,0,0-1.13-.291,1.163,1.163,0,0,1-.546.718Zm-1.75,3.5a1.167,1.167,0,0,1,.583-1.009V9.442A1.167,1.167,0,0,1,10.581,8.433Zm0,5.833a1.167,1.167,0,0,1,.583-1.009v2.018A1.167,1.167,0,0,1,10.581,14.267Zm0,5.833a1.167,1.167,0,0,1,.583-1.009v2.018A1.167,1.167,0,0,1,10.581,20.1Zm0,5.25a1.167,1.167,0,0,1,.583-1.009v2.018A1.167,1.167,0,0,1,10.581,25.35ZM13.5,32.933V31.767H29.105l-.684,1.167ZM28.29,36.016l.526.309-.649.5ZM34.5,32.933h-2.02l2.02-3.446Z" transform="translate(-9.414 -3.767)"/></svg>