<svg xmlns="http://www.w3.org/2000/svg" xmlns:xlink="http://www.w3.org/1999/xlink" width="35" height="35" viewBox="0 0 35 35"><defs><style>.a{fill:#ecb53e;}.b{clip-path:url(#a);}</style><clipPath id="a"><rect class="a" width="35" height="35"/></clipPath></defs><g class="b"><g transform="translate(0 0)"><path class="a" d="M22.4,37.034H17.867a.95.95,0,0,1-.923-.75l-.5-2.361a14.017,14.017,0,0,1-3.464-1.433L10.966,33.8a.949.949,0,0,1-1.184-.125l-3.2-3.195A.949.949,0,0,1,6.461,29.3l1.311-2.02A13.976,13.976,0,0,1,6.34,23.816l-2.361-.5a.949.949,0,0,1-.75-.924V17.867a.948.948,0,0,1,.751-.923l2.36-.5a13.976,13.976,0,0,1,1.433-3.463L6.461,10.965a.949.949,0,0,1,.124-1.183l3.2-3.195a.95.95,0,0,1,1.183-.125l2.021,1.31A14.017,14.017,0,0,1,16.448,6.34l.5-2.361a.95.95,0,0,1,.923-.75H22.4a.95.95,0,0,1,.923.75l.5,2.361A14.017,14.017,0,0,1,27.28,7.772L29.3,6.461a.95.95,0,0,1,1.184.125L33.676,9.78a.949.949,0,0,1,.124,1.184l-1.31,2.02a13.976,13.976,0,0,1,1.433,3.465l2.361.5a.948.948,0,0,1,.75.923v4.528a.949.949,0,0,1-.75.924l-2.361.5a13.976,13.976,0,0,1-1.433,3.463L33.8,29.3a.949.949,0,0,1-.124,1.183l-3.2,3.195A.949.949,0,0,1,29.3,33.8l-2.018-1.312a14.018,14.018,0,0,1-3.465,1.433l-.5,2.363a.95.95,0,0,1-.923.75Zm-9.424-5.6a.48.48,0,0,1,.252.071,13.056,13.056,0,0,0,3.748,1.55.483.483,0,0,1,.359.37l.558,2.656,4.508-.017.537-2.639a.483.483,0,0,1,.359-.37,13.056,13.056,0,0,0,3.748-1.55.483.483,0,0,1,.515.007l2.27,1.475L32.993,29.8l-1.479-2.245a.483.483,0,0,1-.007-.515,13.07,13.07,0,0,0,1.55-3.747.483.483,0,0,1,.369-.359l2.656-.559-.015-4.507-2.639-.537a.483.483,0,0,1-.369-.359,13.071,13.071,0,0,0-1.55-3.746.483.483,0,0,1,.007-.515l1.475-2.27L29.8,7.268,27.555,8.746a.483.483,0,0,1-.515.007A13.056,13.056,0,0,0,23.293,7.2a.483.483,0,0,1-.359-.37l-.558-2.656-4.508.017L17.33,6.833a.483.483,0,0,1-.359.37,13.056,13.056,0,0,0-3.748,1.55.483.483,0,0,1-.515-.007l-2.27-1.475L7.27,10.463l1.479,2.245a.483.483,0,0,1,0,.518A13.071,13.071,0,0,0,7.2,16.972a.483.483,0,0,1-.369.359l-2.656.559.017,4.5,2.639.538a.483.483,0,0,1,.369.359,13.071,13.071,0,0,0,1.55,3.747.483.483,0,0,1-.007.515l-1.475,2.27,3.192,3.169,2.245-1.478a.483.483,0,0,1,.263-.076Z" transform="translate(-3.229 -3.229)"/><path class="a" d="M91.046,50.989a.483.483,0,0,1-.481-.435,9.909,9.909,0,0,0-.268-1.2.483.483,0,0,1,.927-.269,10.711,10.711,0,0,1,.3,1.341.475.475,0,0,1,.006.074.483.483,0,0,1-.483.487Z" transform="translate(-64.238 -35.132)"/><path class="a" d="M35.123,45.625a10.5,10.5,0,1,1,5.772-19.281.483.483,0,0,1-.531.806,9.537,9.537,0,1,0,4.109,9.874.483.483,0,0,1,.947.193A10.533,10.533,0,0,1,35.123,45.625Z" transform="translate(-18.221 -18.219)"/><path class="a" d="M85.031,38.59a.483.483,0,0,1-.405-.219,9.3,9.3,0,0,0-.669-.909.483.483,0,1,1,.738-.622,10.2,10.2,0,0,1,.74,1,.483.483,0,0,1-.141.668A.478.478,0,0,1,85.031,38.59Z" transform="translate(-59.72 -26.657)"/><path class="a" d="M51.51,53.369H44.735a1.566,1.566,0,0,1-1.225-2.543l2.467-3.1V44.375a.483.483,0,0,1,.483-.483h3.325a.483.483,0,0,1,.483.483V47.73l2.467,3.1A1.566,1.566,0,0,1,51.51,53.37Zm-4.568-8.511V47.9a.486.486,0,0,1-.105.3l-2.572,3.229a.6.6,0,0,0,.469.975H51.51a.6.6,0,0,0,.469-.975L49.408,48.2a.483.483,0,0,1-.105-.3V44.857Z" transform="translate(-31.22 -31.727)"/><path class="a" d="M55.13,44.86H49.966a.483.483,0,0,1,0-.966H55.13a.483.483,0,1,1,0,.966Z" transform="translate(-35.645 -31.728)"/></g></g></svg>